<?xml version="1.0" encoding="UTF-8" standalone="no"?>
<svg width="35px" height="35px" viewBox="0 0 35 35" version="1.1" xmlns="http://www.w3.org/2000/svg" xmlns:xlink="http://www.w3.org/1999/xlink">
    <!-- Generator: Sketch 46.1 (44463) - http://www.bohemiancoding.com/sketch -->
    <title>icon_Default Avatar</title>
    <desc>Created with Sketch.</desc>
    <defs></defs>
    <g id="Page-1" stroke="none" stroke-width="1" fill="none" fill-rule="evenodd">
        <g id="Group-7">
            <circle id="Oval-3" fill="#F5F7F9" cx="17.5" cy="17.5" r="17.5"></circle>
            <g id="Group" transform="translate(7.000000, 10.000000)" fill="#C6CDD3">
                <path d="M13.6776353,13 L13.6088549,13.0804384 L13.0468641,13.7358791 L12.9168825,13.8874746 L13.0828649,13.9789623 C13.6634245,14.2989481 13.9828839,14.7000354 13.9828839,15.1086361 C13.9828839,16.0330151 12.3874818,16.8141961 10.4991474,16.8141961 C8.61138129,16.8141961 7.01654772,16.0330151 7.01654772,15.1086361 C7.01654772,14.7000354 7.33638603,14.2989481 7.91656666,13.9789623 L8.08273858,13.8874746 L7.9527569,13.7358791 L7.39057664,13.0804384 L7.32160677,13 L7.23634182,13.0550252 C6.42746163,13.5769911 6,14.2870149 6,15.1086361 C6,17.0068947 8.26331081,18 10.4991474,18 C12.7357418,18 15,17.0068947 15,15.1086361 C15,14.2874569 14.5721594,13.577433 13.7629003,13.0550252 L13.6776353,13 Z" id="Fill-4"></path>
                <path d="M19.8324796,0 L19.8324796,9.96112668 L14.3918968,9.96112668 C14.0820234,9.96112668 13.7853775,10.0839457 13.5663459,10.3018817 L10.5000973,13.3555036 L7.43365414,10.3018817 C7.21462249,10.0839457 6.9179766,9.96112668 6.60810323,9.96112668 L1.1675204,9.96112668 L1.1675204,0 L0,0 L0,11.124033 L6.60810323,11.124033 L10.5000973,15 L14.3918968,11.124033 L21,11.124033 L21,0 L19.8324796,0 Z" id="Fill-6"></path>
                <polygon id="Fill-8" points="16 9 18 9 18 7 16 7"></polygon>
            </g>
        </g>
    </g>
</svg>