<?xml version="1.0" standalone="no"?>
<!DOCTYPE svg PUBLIC "-//W3C//DTD SVG 1.1//EN" "http://www.w3.org/Graphics/SVG/1.1/DTD/svg11.dtd" >
<svg xmlns="http://www.w3.org/2000/svg">
<metadata>Generated by IcoMoon</metadata>
<defs>
<font id="icomoon" horiz-adv-x="1024">
<font-face units-per-em="1024" ascent="960" descent="-64" />
<missing-glyph horiz-adv-x="1024" />
<glyph unicode="&#x20;" horiz-adv-x="512" d="" />
<glyph unicode="&#xe900;" glyph-name="luggage" horiz-adv-x="768" d="M594.368-8.398h-439.926c-78.606 0.103-142.274 63.855-142.274 142.461v457.335c0.103 78.533 63.741 142.171 142.274 142.274h439.926c78.533-0.103 142.171-63.741 142.274-142.274v-457.335c0-78.606-63.668-142.358-142.274-142.461v0zM154.442 677.512c-47.516-0.103-86.010-38.597-86.113-86.113v-457.335c0.103-47.516 38.597-86.010 86.113-86.113h439.926c47.516 0.103 86.010 38.597 86.113 86.113v457.335c-0.103 47.516-38.597 86.010-86.113 86.113h-439.926zM548.69 308.161h-349.32c-15.508 0-28.080 12.572-28.080 28.080s12.572 28.080 28.080 28.080h349.32c15.508 0 28.080-12.572 28.080-28.080s-12.572-28.080-28.080-28.080v0zM457.523 166.262h-166.236c-15.508 0-28.080 12.572-28.080 28.080s12.572 28.080 28.080 28.080h166.049c15.508 0 28.080-12.572 28.080-28.080s-12.572-28.080-28.080-28.080h0.187zM228.2-49.021c-15.508 0-28.080 12.572-28.080 28.080v41.372c0 15.508 12.572 28.080 28.080 28.080s28.080-12.572 28.080-28.080v-41.185c0.050-7.48-2.887-14.67-8.158-19.977s-12.442-8.291-19.922-8.291v0zM520.61-49.021c-15.508 0-28.080 12.572-28.080 28.080v41.372c0 15.508 12.572 28.080 28.080 28.080s28.080-12.572 28.080-28.080v-41.185c0.050-7.48-2.887-14.67-8.158-19.977s-12.442-8.291-19.922-8.291v0zM533.152 677.512h-318.244c-15.508 0-28.080 12.572-28.080 28.080v152.757c0.049 26.131 10.503 51.166 29.050 69.573s43.662 28.67 69.792 28.521h177.468c54.133-0.103 97.991-43.961 98.094-98.094v-152.757c0-15.508-12.572-28.080-28.080-28.080zM243.55 733.672h262.083v124.677c-0.049 11.204-4.56 21.926-12.535 29.796s-18.756 12.237-29.96 12.138h-177.468c-23.117-0.103-41.831-18.817-41.933-41.933l-0.187-124.677z" />
<glyph unicode="&#xe901;" glyph-name="daily" horiz-adv-x="1508" d="M350.088-12.188c-51.561 0-93.357 41.623-93.357 92.971s41.796 92.971 93.357 92.971c51.561 0 93.357-41.623 93.357-92.971s-41.796-92.971-93.357-92.971zM350.088 220.239c-77.341 0-140.035-62.435-140.035-139.456s62.694-139.456 140.035-139.456c77.341 0 140.035 62.435 140.035 139.456s-62.694 139.456-140.035 139.456zM1166.961-12.188c-51.561 0-93.357 41.623-93.357 92.971s41.796 92.971 93.357 92.971c51.561 0 93.357-41.623 93.357-92.971s-41.796-92.971-93.357-92.971zM1166.961 220.239c-77.341 0-140.035-62.435-140.035-139.456s62.694-139.456 140.035-139.456c77.341 0 140.035 62.435 140.035 139.456s-62.694 139.456-140.035 139.456zM466.784 104.025v-46.485h583.481v46.485zM163.375 104.025c-64.13 0-116.696 52.349-116.696 116.213v92.971c0 51.081 42.064 92.971 93.357 92.971h70.018c65.762 0 98.644 25.935 138.651 89.439 1.202 1.909 2.415 3.845 4.078 6.509 2.026 3.247 3.076 4.928 4.047 6.481 3.237 5.174 5.688 9.041 8.124 12.797 42.923 66.187 86.885 93.959 183.518 93.959h280.071c55.436 0 116.62-36.331 177.6-97.698 21.965-22.104 42.297-45.867 60.439-69.627 6.343-8.307 11.95-16.007 16.754-22.892 2.839-4.068 4.75-6.915 5.671-8.334l5.135-7.918 160.928-36.984c12.814-3.194 102.017-24.292 120.060-29.354 65.062-18.255 71.902-29.507 71.902-122.319 0-59.153-52.62-116.213-116.696-116.213h-46.678v-46.485h46.678c90.785 0 163.375 78.715 163.375 162.699 0 111.981-18.587 142.558-105.922 167.062-19.141 5.371-109.443 26.728-121.809 29.806l-152.117 34.963 14.358-10.038c-1.199 1.849-3.403 5.131-6.551 9.643-5.174 7.414-11.17 15.649-17.93 24.501-19.294 25.267-40.911 50.533-64.416 74.187-68.936 69.373-139.856 111.486-210.779 111.486h-280.071c-113.784 0-171.755-36.622-222.73-115.225-2.596-4.003-5.169-8.063-8.528-13.431-0.987-1.578-2.053-3.285-4.071-6.518-1.633-2.616-2.817-4.505-3.98-6.352-32.355-51.358-53.021-67.658-99.11-67.658h-70.018c-77.073 0-140.035-62.702-140.035-139.456v-92.971c0-89.537 73.465-162.699 163.375-162.699h70.018v46.485h-70.018zM116.696 220.239v46.485h-93.357v-46.485zM1458.701 220.239v46.485h-81.687v-46.485zM420.106 452.665l23.229-25.5c0.151 1.545 0.802 5.504 2.267 11.745 2.589 11.032 6.619 24.071 12.409 38.986 16.874 43.47 44.594 92.8 85.731 146.915l-37.217 28.058c-43.746-57.547-73.6-110.676-92.053-158.212-6.575-16.938-11.244-32.043-14.324-45.169-1.937-8.254-2.921-14.239-3.27-17.807l-2.499-25.5h714.235v46.485h-688.507zM641.829 231.628l-0.11-2.258c0.151 1.545 0.802 5.504 2.267 11.745 2.589 11.032 6.619 24.071 12.409 38.986 16.874 43.47 44.594 92.8 85.731 146.915l-37.217 28.058c-43.746-57.547-73.6-110.676-92.053-158.212-6.575-16.938-11.244-32.043-14.324-45.169-1.937-8.254-2.921-14.239-3.27-17.807l-0.11-2.258v-141.993h46.678v141.993zM676.837 429.423h46.678v209.184h-46.678zM1332.692 818.341c0 69.731-52.91 126.364-118.3 126.364s-118.3-56.633-118.3-126.364c0-69.731 52.91-126.364 118.3-126.364s118.3 56.633 118.3 126.364zM1103.539 818.341c0 65.727 49.693 118.917 110.853 118.917s110.853-53.19 110.853-118.917c0-65.727-49.693-118.917-110.853-118.917s-110.853 53.19-110.853 118.917zM1292.509 818.341c0-46.375-35.036-83.877-78.117-83.877s-78.117 37.502-78.117 83.877c0 46.375 35.036 83.877 78.117 83.877s78.117-37.502 78.117-83.877zM1214.392 695.7c63.276 0 114.577 54.912 114.577 122.641s-51.301 122.641-114.577 122.641c-63.276 0-114.577-54.912-114.577-122.641s51.301-122.641 114.577-122.641zM1220.453 854.188c-5.919-2.431-11.618-5.539-17.073-9.317-11.99-8.305-21.235-4.833-32.92 12.501-3.010 4.465-5.809 9.497-8.276 14.811-1.216 2.62-2.195 4.954-2.667 6.265l-1.318 3.668-37.449-15.415 1.203-3.348c3.404-9.474 8.907-20.447 15.783-30.647 23.994-35.594 55.548-45.622 87.667-23.376 3.109 2.154 6.306 3.899 9.604 5.254 15.135 6.216 32.808 4.34 51.726-4.967 3.762-1.851 7.331-3.893 10.585-6.029 1.505-0.988 2.735-1.856 3.265-2.274l3.12-2.461 23.653 34.355-2.74 2.161c-5.117 4.036-12.492 8.621-20.924 12.769-28.826 14.182-57.087 16.792-83.241 6.050zM1083.447 349.022c-6.85 0-12.644 6.202-12.644 13.796v219.001c0 28.62 66.421 57.597 143.589 57.597s143.589-28.977 143.589-57.597v-219.001c0-7.594-5.795-13.796-12.644-13.796s-12.644 6.202-12.644 13.796v178.925h-40.183v-178.925c0-30.95 23.668-56.284 52.828-56.284s52.828 25.334 52.828 56.284v219.001c0 58.26-80.665 100.084-183.773 100.084s-183.773-41.824-183.773-100.084v-219.001c0-30.95 23.668-56.284 52.828-56.284s52.828 25.334 52.828 56.284v178.925h-40.183v-178.925c0-7.594-5.795-13.796-12.644-13.796zM1165.288-61.388c38.162 0 69.196 33.218 69.196 73.804v292.805h-40.183v-292.805c0-17.23-13.16-31.317-29.013-31.317s-29.013 14.087-29.013 31.317v424.206h-40.183v-424.206c0-40.586 31.034-73.804 69.196-73.804zM1198.024 12.416c0-38.584 29.425-70.080 65.472-70.080s65.472 31.496 65.472 70.080v420.483h-32.736v-420.483c0-19.232-14.769-35.040-32.736-35.040s-32.736 15.808-32.736 35.040v289.082h-32.736v-289.082z" />
<glyph unicode="&#xe902;" glyph-name="qq" horiz-adv-x="901" d="M790.122 487.377c12.059 109.678-32.148 129.14-32.148 129.14-9.269 339.324-291.182 333.374-297.103 333.218-5.921 0.155-287.865 6.105-297.103-333.248 0 0-44.207-19.463-32.148-129.141 0 0-84.351-79.151-104.438-199.956 0 0-10.727-204.108 96.41-25.009 0 0 24.117-68.027 68.292-129.141 0 0-79.019-27.768-72.292-99.977 0 0-2.697-80.515 168.733-75 0 0 120.495 9.701 156.673 62.479h31.868c36.146-52.778 156.673-62.479 156.673-62.479 171.368-5.547 168.702 75 168.702 75 6.666 72.179-72.292 99.977-72.292 99.977 44.175 61.115 68.293 129.141 68.293 129.141 107.011-179.099 96.316 25.040 96.316 25.040-20.087 120.804-104.438 199.956-104.438 199.956z" />
<glyph unicode="&#xe903;" glyph-name="single" horiz-adv-x="1420" d="M427.417 387.271c0 63.15-51.257 114.342-114.487 114.342s-114.487-51.193-114.487-114.342c0-63.15 51.257-114.342 114.487-114.342s114.487 51.193 114.487 114.342zM251.023 387.271c0 34.148 27.717 61.83 61.908 61.83s61.908-27.682 61.908-61.83c0-34.148-27.717-61.83-61.908-61.83s-61.908 27.682-61.908 61.83zM1221.193 387.271c0 63.15-51.257 114.342-114.487 114.342s-114.487-51.193-114.487-114.342c0-63.15 51.257-114.342 114.487-114.342s114.487 51.193 114.487 114.342zM1044.798 387.271c0 34.148 27.717 61.83 61.908 61.83s61.908-27.682 61.908-61.83c0-34.148-27.717-61.83-61.908-61.83s-61.908 27.682-61.908 61.83zM110.247-2.509c0-34.32 27.205-61.491 61.568-61.491h103.632c34.364 0 61.568 27.17 61.568 61.491v30.83c0 14.501-11.77 26.256-26.29 26.256s-26.29-11.755-26.29-26.256v-30.83c0-5.318-3.664-8.978-8.989-8.978h-103.632c-5.325 0-8.989 3.66-8.989 8.978v74.873c0 14.501-11.77 26.256-26.29 26.256s-26.29-11.755-26.29-26.256v-74.873zM1256.811-2.509c0-5.318-3.664-8.978-8.989-8.978h-103.632c-5.325 0-8.989 3.66-8.989 8.978v30.83c0 14.501-11.77 26.256-26.29 26.256s-26.29-11.755-26.29-26.256v-30.83c0-34.32 27.205-61.491 61.568-61.491h103.632c34.364 0 61.568 27.17 61.568 61.491v74.873c0 14.501-11.77 26.256-26.29 26.256s-26.29-11.755-26.29-26.256v-74.873zM266.627 171.291c-82.498 0-147.9 65.32-147.9 147.713l-0.406-4.596 35.279 198.194c2.468 14.781 16.367 26.787 31.444 26.787h1049.547c16.101 0 28.97-10.768 31.344-26.183l35.379-198.797-0.406 4.596c0-82.394-65.402-147.713-147.9-147.713h-886.382zM1353.488 319.005l-0.406 4.596-35.279 198.194c-6.261 40.691-41.416 70.108-83.212 70.108h-1049.547c-41.011 0-76.651-30.786-83.26-70.387l-35.231-197.914-0.406-4.596c0-111.396 88.943-200.226 200.479-200.226h886.382c111.536 0 200.479 88.831 200.479 200.226zM508.83 679.649c14.519 0 26.29 11.755 26.29 26.256s-11.77 26.256-26.29 26.256h-88.197c-14.519 0-26.29-11.755-26.29-26.256s11.77-26.256 26.29-26.256h88.197zM438.442 661.863c0-14.501 11.77-26.256 26.29-26.256s26.29 11.755 26.29 26.256v88.086c0 14.501-11.77 26.256-26.29 26.256s-26.29-11.755-26.29-26.256v-88.086zM1142.666 806.564c-17.353 27.235-24.881 39.062-33.595 52.804-33.734 51.836-90.58 82.677-152.301 82.677h-491.7c-61.721 0-118.567-30.841-152.133-82.416l-108.261-172.11c-7.724-12.279-4.018-28.487 8.277-36.2s28.523-4.013 36.246 8.266l108.042 171.768c23.652 36.337 63.914 58.179 107.83 58.179h491.7c43.916 0 84.177-21.843 108.049-58.522 8.574-13.524 16.114-25.37 33.488-52.639 50.038-78.532 69.617-109.641 73.082-116.562 6.493-12.97 22.285-18.227 35.271-11.742s18.25 22.257 11.757 35.227c-4.804 9.596-21.606 36.292-75.751 121.27zM1393.347 647.295c14.519 0 26.29 11.755 26.29 26.256s-11.77 26.256-26.29 26.256h-110.247c-14.519 0-26.29-11.755-26.29-26.256s11.77-26.256 26.29-26.256h110.247zM136.536 647.295c14.519 0 26.29 11.755 26.29 26.256s-11.77 26.256-26.29 26.256h-110.247c-14.519 0-26.29-11.755-26.29-26.256s11.77-26.256 26.29-26.256h110.247zM709.818 363.217h198.444c14.519 0 26.29 11.755 26.29 26.256s-11.77 26.256-26.29 26.256h-396.888c-14.519 0-26.29-11.755-26.29-26.256s11.77-26.256 26.29-26.256h198.444zM826.221 295.681c14.116 3.396 22.802 17.577 19.402 31.675s-17.599 22.774-31.715 19.378c-68.716-16.531-139.464-16.531-208.18 0-14.116 3.396-28.315-5.28-31.715-19.378s5.287-28.279 19.402-31.675c76.809-18.478 155.997-18.478 232.806 0zM820.065 779.424c14.519 0 26.29 11.755 26.29 26.256s-11.77 26.256-26.29 26.256h-220.493c-14.519 0-26.29-11.755-26.29-26.256s11.77-26.256 26.29-26.256h220.493zM1040.558 669.316c14.519 0 26.29 11.755 26.29 26.256s-11.77 26.256-26.29 26.256h-88.197c-14.519 0-26.29-11.755-26.29-26.256s11.77-26.256 26.29-26.256h88.197zM970.17 651.53c0-14.501 11.77-26.256 26.29-26.256s26.29 11.755 26.29 26.256v88.086c0 14.501-11.77 26.256-26.29 26.256s-26.29-11.755-26.29-26.256v-88.086z" />
<glyph unicode="&#xe904;" glyph-name="pick" horiz-adv-x="1258" d="M1025.853 671.542c-41.817 0-75.729 34.027-75.729 76.002s33.912 76.002 75.729 76.002c41.817 0 75.729-34.027 75.729-76.002s-33.912-76.002-75.729-76.002zM1025.853 862.238c-63.138 0-114.321-51.357-114.321-114.694s51.183-114.694 114.321-114.694c63.138 0 114.321 51.357 114.321 114.694s-51.183 114.694-114.321 114.694zM1197.366 349.916c8.522-7.269 9.566-20.198 2.328-28.739-3.877-4.577-9.507-7.189-15.489-7.189-4.787 0-9.45 1.722-13.126 4.856l-45.681 38.612-24.876-29.582 45.62-38.56c10.585-9.024 24.106-14.018 38.063-14.018 17.311 0 33.696 7.603 44.902 20.831 21.032 24.816 18.015 62.15-6.733 83.259l-96.91 82.651-25.006-29.471 96.91-82.651zM1093.655 283.924v-2.515l70.596-267.593c2.865-10.85-3.625-22.048-14.427-24.915-1.751-0.466-3.507-0.698-5.221-0.698-9.16 0-17.227 6.242-19.584 15.181l-103.125 390.883-103.115-390.882c-2.357-8.937-10.43-15.182-19.585-15.182-1.72 0-3.472 0.232-5.195 0.692-10.835 2.875-17.326 14.072-14.462 24.919l70.407 266.907 18.341 251.654-29.623-13.541c-14.126-6.457-26.958-14.905-38.524-24.849-9.612-8.263-17.835-17.1-24.715-25.972-4.227-5.451-7.146-9.843-8.783-12.657l-2.627-4.517v-100.576c0-11.225-9.126-20.382-20.297-20.382s-20.297 9.157-20.297 20.382v95.348c0 56.389 101.832 139.392 195.31 139.392 50.794 0 74.929-28.027 74.929-71.854h19.296l-19.182 2.102c-0.137-2.366-0.137-2.366-0.123-2.839-0.004-0.928-0.004-0.928-0.007-2.25-0.004-1.815-0.006-4.401-0.008-7.7-0.002-5.798-0.001-13.666 0.002-23.089 0.002-5.196 0.004-8.509 0.009-16.378 0.005-7.151 0.005-7.151 0.008-12.432 0.003-4.037 0.003-4.037 0.004-4.969v-161.67zM1132.244 450.592c-0.004 5.279-0.004 5.279-0.008 12.427-0.005 7.865-0.006 11.176-0.009 16.37-0.004 9.413-0.005 17.271-0.002 23.057 0.001 3.279 0.004 5.848 0.007 7.637 0.003 1.287 0.003 1.287 0.007 2.13 0.009 64.972-40.041 111.481-113.512 111.481-113.235 0-233.902-98.355-233.902-178.084v-95.348c0-32.587 26.397-59.074 58.89-59.074s58.89 26.487 58.89 59.074v95.348l-2.627-9.745c0.813 1.397 2.791 4.374 5.912 8.398 5.365 6.919 11.837 13.873 19.369 20.348 8.931 7.678 18.745 14.14 29.413 19.016l-27.25 19.012-15.837-217.305 0.59 3.536-69.946-265.162c-8.316-31.498 10.453-63.876 41.869-72.212 4.921-1.314 10.011-1.987 15.097-1.987 26.686 0 50.066 18.086 56.895 43.983l84.461 320.168h-37.31l84.469-320.17c6.829-25.897 30.203-43.981 56.894-43.981 5.076 0 10.162 0.672 15.113 1.991 31.394 8.333 50.16 40.712 41.843 72.212l-69.953 265.158 0.641-4.947v161.686c-0.001 0.946-0.001 0.946-0.004 4.982zM841.535 296.86l-27.3 27.348-292.994-293.989 27.3-27.348zM402.658 97.269c1.435-1.44 1.435-3.701-0.012-5.152l175.733 176.33c-1.455-1.46-3.736-1.46-5.191 0l106.436-106.67 27.284 27.364-106.428 106.662c-13.61 13.657-35.783 13.657-49.401-0.008l-175.733-176.33c-13.61-13.656-13.61-35.876 0-49.532l74.615-74.995 27.323 27.325-74.626 75.007zM503.216-11.783c-6.832 0-12.379 5.566-12.379 12.437s5.547 12.437 12.379 12.437c6.832 0 12.379-5.566 12.379-12.437s-5.547-12.437-12.379-12.437zM503.216 51.783c-28.153 0-50.971-22.896-50.971-51.128s22.818-51.128 50.971-51.128c28.153 0 50.971 22.896 50.971 51.128s-22.818 51.128-50.971 51.128zM628.144 110.137l27.3 27.348-114.822 115.212-27.3-27.348zM945.452 734.045c3.010 1.853 6.464 3.728 10.264 5.481 17.461 8.053 34.936 10.432 50.314 4.512 3.183-1.225 6.291-2.81 9.334-4.786 32.949-21.393 62.928-8.776 84.481 21.195 7.458 10.37 12.498 20.548 15.289 27.833l-36.025 13.878c-0.356-0.93-1.227-2.948-2.573-5.667-2.283-4.61-4.977-9.216-7.997-13.416-10.994-15.288-20.175-19.152-32.198-11.346-5.294 3.437-10.797 6.243-16.478 8.43-26.691 10.276-54.248 6.523-80.277-5.481-9.083-4.189-15.995-8.444-20.212-11.563l22.907-31.139c0.385 0.285 1.472 1.025 3.17 2.070zM1243.013-50.268v32.21h-1124.439v-32.21zM524.916 811.749c-1.449 0.934-3.139 2.013-5.059 3.225-5.46 3.448-11.676 7.283-18.542 11.409-19.606 11.782-40.536 23.562-61.96 34.573-20.668 10.623-40.743 19.976-59.87 27.715-58.37 23.616-103.794 31.076-133.942 15.555-14.029-7.233-27.421-14.128-39.727-20.457-4.307-2.215-8.17-4.2-11.532-5.928-3.419-1.756-3.419-1.756-4.147-2.13l-18.668-9.582 154.258-172.65 4.658 25.235-131.617-67.749 10.993 1.381-124.175 28.507-80.483-41.419 120.913-120.3 1.39-1.233c40.812-32.2 100.168-29.601 156.461-0.619l554.196 285.256c38.404 19.777 53.76 67.521 34.221 106.25-19.563 38.798-66.994 54.367-105.465 34.565l-256.318-131.933 14.769-28.84 256.318 131.933c22.485 11.574 50.354 2.426 61.84-20.354 11.528-22.851 2.422-51.165-20.137-62.782l-554.194-285.256c-46.176-23.773-92.471-25.8-121.694-2.744l1.39-1.233-105.104 104.571-4.005-25.926 55.423 28.523-10.992-1.38 124.176-28.507 155.497 80.041-154.242 172.632-4.675-25.244c0.732 0.376 0.732 0.376 4.157 2.135 3.366 1.729 7.233 3.717 11.544 5.934 12.316 6.333 25.718 13.233 39.749 20.468 18.882 9.72 57.040 3.454 107.061-16.784 18.153-7.345 37.365-16.296 57.219-26.501 20.737-10.658 41.057-22.095 60.087-33.53 6.656-4 12.669-7.71 17.933-11.034 3.134-1.979 5.306-3.379 6.407-4.102l17.714 27.122c-0.349 0.229-0.946 0.617-1.828 1.186zM573.238 702.212l20.848-24.781c63.406 53.619 90.504 123.882 92.599 197.676l-32.323 0.922c-1.854-65.305-25.592-126.856-81.125-173.817z" />
<glyph unicode="&#xe905;" glyph-name="hotel" horiz-adv-x="989" d="M311.82 467.65h98.47v131.293h-98.47v-131.293zM919.058 26.199c37.396 7.626 65.643 40.774 65.643 80.394v32.823c0 20.989-7.895 40.652-22.040 55.717 3.708 8.27 5.63 17.184 5.63 26.339 0 36.205-29.441 65.647-65.647 65.647s-65.647-29.441-65.647-65.647c0-9.159 1.919-18.069 5.63-26.339-14.148-15.065-22.040-34.728-22.040-55.717v-32.823c0-39.619 28.244-72.768 65.647-80.401v-50.893h-147.707v689.291h-134.658l174.655 163.718-131.675 131.693h-308.998l-131.672-131.672 174.655-163.735h-134.662v-689.287h-147.703v50.893c37.403 7.633 65.647 40.767 65.647 80.401v32.823c0 20.989-7.895 40.652-22.040 55.717 3.708 8.27 5.63 17.184 5.63 26.339 0 36.205-29.441 65.647-65.647 65.647s-65.647-29.441-65.647-65.647c0-9.159 1.919-18.069 5.63-26.339-14.148-15.065-22.040-34.728-22.040-55.717v-32.823c0-39.619 28.244-72.768 65.647-80.401v-50.893h-65.65v-32.823h984.704v32.823h-65.647v50.893zM32.823 106.593v32.823c0 15.51 7.272 29.837 19.939 39.308 3.512 2.608 5.826 6.516 6.435 10.864 0.606 4.334-0.525 8.732-3.169 12.212-4.446 5.843-6.796 12.653-6.796 19.677 0 18.101 14.722 32.823 32.823 32.823s32.823-14.722 32.823-32.823c0-7.023-2.346-13.837-6.796-19.694-2.643-3.48-3.774-7.878-3.169-12.212 0.623-4.334 2.92-8.221 6.435-10.847 12.671-9.471 19.939-23.797 19.939-39.308v-32.823c0-27.144-22.089-49.237-49.237-49.237s-49.23 22.092-49.23 49.237v0zM528.423 638.839l57.818 173.454h127.19l-185.008-173.454zM492.382 634.34l-59.313 177.953h118.871l-59.558-177.953zM508.76 566.12v-65.647h-32.823v65.647h9.929l6.484-6.089 6.484 6.089h9.926zM715.318 845.12h-112.618l40.95 71.669 71.669-71.669zM611.775 927.177l-38.912-68.077-48.628 68.077h87.539zM542.522 845.116h-100.343l50.172 70.226 50.172-70.226zM460.444 927.177l-48.775-68.304-38.831 68.304h87.606zM341.065 916.785l40.946-71.669h-112.615l71.669 71.669zM271.266 812.293h127.19l57.818-173.454-185.008 173.454zM377.467-24.701h-32.823v114.884h67.453c-21.336-20.874-34.63-49.923-34.63-82.060v-32.823zM574.411-24.701h-164.12v32.823c0 45.245 36.811 82.060 82.060 82.060s82.060-36.811 82.060-82.060v-32.823zM640.054-24.704h-32.823v32.823c0 32.137-13.294 61.186-34.63 82.060h67.453v-114.884zM344.644 566.12h32.823v-65.647h-32.823v65.647zM574.407 467.65h98.47v131.293h-98.47v-131.293zM607.23 566.12h32.823v-65.647h-32.823v65.647zM311.82 303.533h98.47v131.293h-98.47v-131.293zM344.644 402.003h32.823v-65.647h-32.823v65.647zM443.114 303.533h98.47v131.293h-98.47v-131.293zM475.937 402.003h32.823v-65.647h-32.823v65.647zM574.407 303.533h98.47v131.293h-98.47v-131.293zM607.23 402.003h32.823v-65.647h-32.823v65.647zM311.82 155.826h98.47v114.884h-98.47v-114.884zM344.644 237.886h32.823v-49.237h-32.823v49.237zM443.114 155.826h98.47v114.884h-98.47v-114.884zM475.937 237.886h32.823v-49.237h-32.823v49.237zM574.407 155.826h98.47v114.884h-98.47v-114.884zM607.23 237.886h32.823v-49.237h-32.823v49.237zM672.877-24.701v147.707h-361.057v-147.707h-32.823v656.467h136.839l35.005-32.823h-7.731v-131.293h98.47v131.293h-7.731l35.005 32.823h136.839v-656.467h-32.816zM853.407 106.593v32.823c0 15.51 7.272 29.837 19.939 39.308 3.512 2.608 5.826 6.516 6.432 10.864 0.606 4.334-0.525 8.732-3.169 12.212-4.446 5.843-6.796 12.653-6.796 19.677 0 18.101 14.722 32.823 32.823 32.823s32.823-14.722 32.823-32.823c0-7.023-2.346-13.837-6.796-19.694-2.643-3.48-3.774-7.878-3.169-12.212 0.623-4.334 2.92-8.221 6.432-10.847 12.671-9.471 19.939-23.797 19.939-39.308v-32.823c0-27.144-22.089-49.237-49.237-49.237-27.134 0-49.223 22.092-49.223 49.237v0z" />
<glyph unicode="&#xe906;" glyph-name="tag" d="M109.297 382.445c-31.925-31.925-31.956-83.665-0.063-115.559l245.174-245.174c31.809-31.809 83.631-31.865 115.559 0.063l464.14 464.14c15.896 15.896 27.662 46.968 26.354 69.475l-13.542 232.999c-2.605 44.822-41.201 82.083-86.181 82.8l-217.902 3.472c-22.396 0.357-53.537-12.211-69.399-28.074l-464.14-464.14zM543.267 876.755c24.021 24.021 66.288 41.107 100.249 40.566l217.902-3.472c67.286-1.072 124.193-55.828 128.096-122.985l13.542-232.999c2.014-34.659-14.27-77.611-38.779-102.12l-464.14-464.14c-48.561-48.561-127.397-48.564-175.899-0.063l-245.174 245.174c-48.562 48.562-48.518 127.318 0.063 175.899l464.14 464.14zM831.312 743.79c-46.541 46.541-122 46.541-168.541 0s-46.541-122 0-168.541c46.541-46.541 122-46.541 168.541 0s46.541 122 0 168.541zM632.601 545.079c-63.204 63.204-63.204 165.677 0 228.881s165.677 63.204 228.881 0c63.204-63.204 63.204-165.677 0-228.881s-165.677-63.204-228.881 0z" />
<glyph unicode="&#xe907;" glyph-name="sort-up" horiz-adv-x="663" d="M356.891 947.768c-0.51 1.019-1.529 1.529-2.548 2.548s-2.548 2.039-3.568 3.058c-1.019 0.51-2.039 1.019-3.058 1.529-1.529 0.51-2.548 1.529-4.077 2.039s-2.548 1.019-4.077 1.019c-1.019 0.51-2.548 1.019-3.568 1.019-2.548 0.51-5.097 1.019-7.645 1.019s-5.606-0.51-8.155-1.019c-1.019 0-2.039-0.51-3.568-1.019s-3.058-0.51-4.077-1.529c-1.529-0.51-2.548-1.529-3.568-2.039s-2.039-1.019-3.058-1.529c-1.529-1.019-2.548-2.039-3.568-3.058-1.019-0.51-1.529-1.019-2.548-2.039l-287.959-288.469c-15.8-15.8-15.8-41.792 0-57.592 8.155-8.155 18.348-11.722 29.051-11.722s20.896 4.077 29.051 11.722l218.645 218.645v-814.339c0-22.425 18.348-40.773 40.773-40.773s40.773 18.348 40.773 40.773v814.849l218.645-218.645c8.155-8.155 18.348-11.722 29.051-11.722s20.896 4.077 29.051 11.722c14.271 15.8 14.271 41.792-2.039 57.592l-287.959 287.959z" />
<glyph unicode="&#xe908;" glyph-name="sort-down" horiz-adv-x="663" d="M356.891-22.528c-0.51-1.019-1.529-1.529-2.548-2.548s-2.548-2.039-3.568-3.058c-1.019-0.51-2.039-1.019-3.058-1.529-1.529-0.51-2.548-1.529-4.077-2.039s-2.548-1.019-4.077-1.019c-1.019-0.51-2.548-1.019-3.568-1.019-2.548-0.51-5.097-1.019-7.645-1.019s-5.606 0.51-8.155 1.019c-1.019 0-2.039 0.51-3.568 1.019s-3.058 0.51-4.077 1.529c-1.529 0.51-2.548 1.529-3.568 2.039s-2.039 1.019-3.058 1.529c-1.529 1.019-2.548 2.039-3.568 3.058-1.019 0.51-1.529 1.019-2.548 2.039l-287.959 288.469c-15.8 15.8-15.8 41.792 0 57.592 8.155 8.155 18.348 11.722 29.051 11.722s20.896-4.077 29.051-11.722l218.645-218.645v814.339c0 22.425 18.348 40.773 40.773 40.773s40.773-18.348 40.773-40.773v-814.849l218.645 218.645c8.155 8.155 18.348 11.722 29.051 11.722s20.896-4.077 29.051-11.722c14.271-15.8 14.271-41.792-2.039-57.592l-287.959-287.959z" />
<glyph unicode="&#xe909;" glyph-name="date" d="M934.4 741.201v-637.603c0-28.721-23.979-52.399-53.336-52.399h-738.128c-29.556 0-53.336 23.532-53.336 52.399v637.603c0 28.721 23.979 52.399 53.336 52.399 21.208 0 38.4 17.192 38.4 38.4s-17.192 38.4-38.4 38.4c-71.556 0-130.136-57.843-130.136-129.199v-637.603c0-71.463 58.344-129.199 130.136-129.199h738.128c71.556 0 130.136 57.843 130.136 129.199v637.603c0 71.463-58.344 129.199-130.136 129.199-21.208 0-38.4-17.192-38.4-38.4s17.192-38.4 38.4-38.4c29.556 0 53.336-23.532 53.336-52.399zM320 934.4c21.208 0 38.4-17.192 38.4-38.4v-110.956c0-21.208-17.192-38.4-38.4-38.4s-38.4 17.192-38.4 38.4v110.956c0 21.208 17.192 38.4 38.4 38.4zM512 934.4c21.208 0 38.4-17.192 38.4-38.4v-110.956c0-21.208-17.192-38.4-38.4-38.4s-38.4 17.192-38.4 38.4v110.956c0 21.208 17.192 38.4 38.4 38.4zM704 934.4c21.208 0 38.4-17.192 38.4-38.4v-110.956c0-21.208-17.192-38.4-38.4-38.4s-38.4 17.192-38.4 38.4v110.956c0 21.208 17.192 38.4 38.4 38.4zM345.6 243.2c0-21.208 17.192-38.4 38.4-38.4s38.4 17.192 38.4 38.4v307.2c0 21.208-17.192 38.4-38.4 38.4s-38.4-17.192-38.4-38.4v-307.2zM384 512c21.208 0 38.4 17.192 38.4 38.4s-17.192 38.4-38.4 38.4h-102.4c-21.208 0-38.4-17.192-38.4-38.4s17.192-38.4 38.4-38.4h102.4zM652.8 243.2c0-21.208 17.192-38.4 38.4-38.4s38.4 17.192 38.4 38.4v307.2c0 21.208-17.192 38.4-38.4 38.4s-38.4-17.192-38.4-38.4v-307.2zM691.2 512c21.208 0 38.4 17.192 38.4 38.4s-17.192 38.4-38.4 38.4h-102.4c-21.208 0-38.4-17.192-38.4-38.4s17.192-38.4 38.4-38.4h102.4z" />
<glyph unicode="&#xe90a;" glyph-name="right-arrow" horiz-adv-x="683" d="M12.162 949.523c-16.217-14.113-16.217-37.048 0-51.161l517.918-449.866-517.918-450.749c-16.217-14.113-16.217-37.048 0-51.161s42.569-14.113 58.785 0l546.297 475.447c8.108 7.057 12.162 15.878 12.162 25.581 0 8.821-4.054 18.524-12.162 25.581l-546.297 475.447c-16.217 14.996-42.569 14.996-58.785 0.882v0z" />
<glyph unicode="&#xe90b;" glyph-name="send" d="M1006.035-64v35.93h-988.070v-35.93zM98.807 581.389h-35.93v-627.425h35.93zM925.193-46.035h35.93v627.425h-35.93zM35.93 599.354c-0.004 0 0 324.716 0 324.716 0 0.004 952.14 0 952.14 0 0.004 0 0-324.716 0-324.716 0-0.004-952.14 0-952.14 0zM1024 607.888v316.182c0 19.847-16.082 35.93-35.93 35.93h-952.14c-19.847 0-35.93-16.082-35.93-35.93v-316.182c0-19.847 16.082-35.93 35.93-35.93h952.14c19.847 0 35.93 16.082 35.93 35.93zM779.624 415.383c0 24.13-18.132 43.684-40.509 43.684h-658.272v-43.684h658.272c0.004 0 0-458.677 0-458.677h40.509v458.677zM759.369 306.174v43.684h-678.527v-43.684zM196.465 730.127c-5.851-2.341-15.799-4.291-24.771-4.291-26.526 0-42.13 16.579-42.13 42.91 0 29.257 18.334 43.496 41.935 43.496 10.533 0 18.92-2.341 24.966-4.876l6.046 23.601c-5.266 2.731-16.969 5.851-32.378 5.851-39.79 0-71.778-24.966-71.778-69.827 0-37.449 23.406-65.731 68.852-65.731 15.994 0 28.282 2.926 33.743 5.656l-4.486 23.211zM220.456 834.673v-131.462h29.842v55.003h48.957v-55.003h29.647v131.462h-29.647v-50.517h-48.957v50.517h-29.842zM433.058 782.985h-48.372v27.307h51.298v24.381h-81.14v-131.462h83.87v24.381h-54.028v31.208h48.372v24.186zM551.062 730.127c-5.851-2.341-15.799-4.291-24.771-4.291-26.526 0-42.13 16.579-42.13 42.91 0 29.257 18.334 43.496 41.935 43.496 10.533 0 18.92-2.341 24.966-4.876l6.046 23.601c-5.266 2.731-16.969 5.851-32.378 5.851-39.79 0-71.778-24.966-71.778-69.827 0-37.449 23.406-65.731 68.852-65.731 15.994 0 28.282 2.926 33.743 5.656l-4.486 23.211zM575.053 703.211h29.452v42.91l11.313 13.848 32.183-56.759h34.718l-45.836 75.483 43.496 55.979h-36.474l-29.842-43.691c-2.926-4.681-6.046-9.362-8.972-14.434h-0.585v58.124h-29.452v-131.462zM683.304 764.261v-19.7h51.102v19.7h-51.102zM753.131 834.673v-131.462h29.842v131.462h-29.842zM836.026 703.211v39.595c0 21.455-0.39 39.985-1.17 57.344l0.585 0.195c6.437-15.409 15.019-32.378 22.821-46.421l28.087-50.712h31.208v131.462h-27.307v-38.424c0-19.7 0.585-37.449 2.536-54.808h-0.585c-5.851 14.824-13.653 31.208-21.455 45.056l-27.307 48.177h-34.718v-131.462h27.307zM425.169 65.915c-22.375 0-40.509 19.555-40.509 43.684s18.134 43.684 40.509 43.684c22.375 0 40.509-19.555 40.509-43.684s-18.134-43.684-40.509-43.684zM425.169 196.966c-44.748 0-81.018-39.112-81.018-87.367s36.27-87.367 81.018-87.367c44.748 0 81.018 39.112 81.018 87.367s-36.27 87.367-81.018 87.367zM155.928 37.676l-28.644-30.889 60.764-65.525 28.644 30.889zM242.878 0.39l-14.322 6.397 60.764-65.525 28.644 30.889-66.696 71.923h-170.426v-43.684zM712.928 6.787l-28.644 30.889-60.764-65.525 28.644-30.889zM597.333 44.073h-8.39l-66.696-71.923 28.644-30.889 60.764 65.525-14.322-6.397h162.036v43.684zM943.158 25.825v35.93h-183.789v-35.93z" />
<glyph unicode="&#xe90c;" glyph-name="seach-city" horiz-adv-x="1088" d="M324.995 680.424h-46.195c-13.044 0-23.369 10.337-23.369 23.393v69.633c0 13.056 10.325 23.393 23.369 23.393h46.195c13.043 0 23.369-10.337 23.369-23.393v-69.633c0-13.056-10.327-23.393-23.369-23.393zM556.512 680.424h-46.195c-13.043 0-23.368 10.337-23.368 23.393v69.633c0 13.056 10.325 23.393 23.368 23.393h46.195c13.044 0 23.369-10.337 23.369-23.393v-69.633c-0.543-13.056-10.869-23.393-23.369-23.393zM324.995 472.069h-46.195c-13.044 0-23.369 10.337-23.369 23.393v69.633c0 13.056 10.325 23.393 23.369 23.393h46.195c13.043 0 23.369-10.337 23.369-23.393v-69.633c0-13.056-10.327-23.393-23.369-23.393zM556.512 263.715h-46.195c-13.043 0-23.368 10.336-23.368 23.391v69.633c0 13.057 10.325 23.393 23.368 23.393h46.195c13.044 0 23.369-10.336 23.369-23.393v-69.633c-0.543-12.511-10.869-23.391-23.369-23.391zM810.856 375.779h-46.195c-13.043 0-23.369 10.337-23.369 23.393v69.633c0 13.056 10.327 23.393 23.369 23.393h46.195c13.044 0 23.369-10.337 23.369-23.393v-69.633c-0.544-13.056-10.869-23.393-23.369-23.393zM810.856 167.424h-46.195c-13.043 0-23.369 10.337-23.369 23.393v69.633c0 13.056 10.327 23.393 23.369 23.393h46.195c13.044 0 23.369-10.337 23.369-23.393v-69.633c-0.544-13.056-10.869-23.393-23.369-23.393zM1063.569-14.274h-96.194v544.008c0 53.313-41.847 97.921-95.107 97.921h-154.889v214.883c0 64.193-51.086 116.962-114.673 116.962h-370.102c-63.586 0-118.477-52.769-118.477-116.962v-856.813h-90.759c-12.5 0-23.369-11.425-23.369-24.48s10.325-24.48 23.369-24.48h1040.744c12.5 0 23.369 11.425 23.369 24.48s-10.869 24.48-23.913 24.48v0zM929.332 529.734v-544.008h-282.604v544.008c0 32.096 24.456 59.841 56.52 59.841h169.019c31.521 0 57.064-27.745 57.064-59.841v0zM163.041 842.539c0 38.081 30.977 68.001 69.564 68.001h370.102c38.043 0 71.195-29.376 71.195-68.001v-220.323c-38.043-12.512-65.216-48.961-65.216-92.481v-544.008h-445.645v856.813z" />
<glyph unicode="&#xe90d;" glyph-name="rout" d="M20.48 849.012c-11.311 0-20.48-9.169-20.48-20.48v-872.052c0-11.311 9.169-20.48 20.48-20.48h507.375c2.993 0 5.949 0.656 8.661 1.921l237.832 110.988h-17.321l237.832-110.988c13.578-6.336 29.141 3.575 29.141 18.559v872.052c0 7.957-4.609 15.194-11.819 18.559l-237.832 110.988c-5.49 2.562-11.832 2.562-17.321 0l-237.832-110.988 8.661 1.921h-63.422c-11.311 0-20.48-9.169-20.48-20.48s9.169-20.48 20.48-20.48h63.422c2.993 0 5.949 0.656 8.661 1.921l237.832 110.988h-17.321l237.832-110.988-11.819 18.559v-872.052l29.141 18.559-237.832 110.988c-5.49 2.562-11.832 2.562-17.321 0l-237.832-110.988 8.661 1.921h-507.375l20.48-20.48v872.052l-20.48-20.48h47.566c11.311 0 20.48 9.169 20.48 20.48s-9.169 20.48-20.48 20.48h-47.566zM786.168 939.52c0 11.311-9.169 20.48-20.48 20.48s-20.48-9.169-20.48-20.48v-190.266c0-11.311 9.169-20.48 20.48-20.48s20.48 9.169 20.48 20.48v190.266zM786.168 590.699c0 11.311-9.169 20.48-20.48 20.48s-20.48-9.169-20.48-20.48v-523.231c0-11.311 9.169-20.48 20.48-20.48s20.48 9.169 20.48 20.48v523.231zM548.335 828.532c0 11.311-9.169 20.48-20.48 20.48s-20.48-9.169-20.48-20.48v-602.508c0-11.311 9.169-20.48 20.48-20.48s20.48 9.169 20.48 20.48v602.508zM380.267 389.335c0 38.457-31.175 69.632-69.632 69.632s-69.632-31.175-69.632-69.632c0-38.457 31.175-69.632 69.632-69.632s69.632 31.175 69.632 69.632zM281.963 389.335c0 15.835 12.837 28.672 28.672 28.672s28.672-12.837 28.672-28.672c0-15.835-12.837-28.672-28.672-28.672s-28.672 12.837-28.672 28.672zM421.492 788.893c0 85.743-69.509 155.252-155.252 155.252s-155.252-69.509-155.252-155.252c0-85.743 69.509-155.252 155.252-155.252s155.252 69.509 155.252 155.252zM151.948 788.893c0 63.122 51.17 114.292 114.292 114.292s114.292-51.17 114.292-114.292c0-63.122-51.17-114.292-114.292-114.292s-114.292 51.17-114.292 114.292zM318.431 788.893c0 28.824-23.367 52.191-52.191 52.191s-52.191-23.367-52.191-52.191c0-28.824 23.367-52.191 52.191-52.191s52.191 23.367 52.191 52.191zM255.009 788.893c0 6.203 5.028 11.231 11.231 11.231s11.231-5.028 11.231-11.231c0-6.203-5.028-11.231-11.231-11.231s-11.231 5.028-11.231 11.231zM313.074 204.738c-1.118-1.485-3.76-1.485-5.082 0.276-53.801 70.92-98.965 149.12-98.965 184.32 0 56.281 45.734 101.607 101.607 101.607 55.282 0 101.607-46.325 101.607-101.607 0-34.35-39.742-102.531-99.168-184.596zM310.635 531.902c-78.413 0-142.567-63.582-142.567-142.567 0-48.115 47.253-129.933 107.224-208.986 17.638-23.517 53.048-23.517 70.753 0.090 66.53 91.87 107.157 161.569 107.157 208.896 0 77.904-64.663 142.567-142.567 142.567zM336.216 829.906c7.998 7.998 7.998 20.965 0 28.963s-20.965 7.998-28.963 0l-31.711-31.711c-7.998-7.998-7.998-20.965 0-28.963s20.965-7.998 28.963 0l31.711 31.711zM196.264 747.88c-7.998-7.998-7.998-20.965 0-28.963s20.965-7.998 28.963 0l31.711 31.711c7.998 7.998 7.998 20.965 0 28.963s-20.965 7.998-28.963 0l-31.711-31.711zM437.996 135.569c18.933-4.239 38.798-6.967 58.9-7.462 11.307-0.278 20.7 8.662 20.978 19.97s-8.662 20.7-19.97 20.978c-17.213 0.424-34.479 2.795-50.96 6.485-6.406 1.434-12.226 2.966-17.329 4.486-2.964 0.883-4.961 1.541-5.861 1.862-10.652 3.804-22.371-1.747-26.175-12.399s1.747-22.371 12.399-26.175c5.679-2.028 15.336-4.906 28.018-7.745zM661.208 198.025c7.194 8.729 5.949 21.636-2.779 28.829s-21.636 5.949-28.829-2.779c-12.135-14.724-31.156-28.204-59.857-41.545-10.257-4.768-14.707-16.947-9.939-27.204s16.947-14.707 27.204-9.939c33.841 15.73 57.744 32.67 74.201 52.638zM680.247 376.862c-4.212 10.497-16.136 15.593-26.633 11.382s-15.593-16.136-11.382-26.633c8.677-21.627 12.015-43.012 9.553-71.814-0.964-11.27 7.391-21.187 18.661-22.15s21.187 7.391 22.15 18.661c3.016 35.279-1.322 63.070-12.349 90.555zM643.101 522.978c1.3 11.236-6.755 21.398-17.991 22.698s-21.398-6.755-22.698-17.991c-4.062-35.107-1.817-63.718 6.030-89.968 3.24-10.837 14.651-16.996 25.488-13.756s16.996 14.651 13.756 25.488c-6.216 20.795-8.023 43.82-4.586 73.529zM710.37 644.496c10.304 4.666 14.874 16.801 10.208 27.104s-16.801 14.874-27.104 10.208c-29.232-13.237-51.423-36.874-66.992-68.325-5.018-10.137-0.868-22.422 9.269-27.44s22.422-0.868 27.44 9.269c11.636 23.507 27.284 40.174 47.179 49.183zM548.335 83.324c0 11.311-9.169 20.48-20.48 20.48s-20.48-9.169-20.48-20.48v-126.844c0-11.311 9.169-20.48 20.48-20.48s20.48 9.169 20.48 20.48v126.844zM830.484 636.892c-7.998-7.998-7.998-20.965 0-28.963s20.965-7.998 28.963 0l63.422 63.422c7.998 7.998 7.998 20.965 0 28.963s-20.965 7.998-28.963 0l-63.422-63.422zM893.906 607.929c7.998-7.998 20.965-7.998 28.963 0s7.998 20.965 0 28.963l-63.422 63.422c-7.998 7.998-20.965 7.998-28.963 0s-7.998-20.965 0-28.963l63.422-63.422z" />
<glyph unicode="&#xe90e;" glyph-name="checd" horiz-adv-x="1339" d="M562.374-84.711l-552.358 454.294 123.937 162.487 384.568-305.018 535.041 817.863 164.357-99.017z" />
<glyph unicode="&#xe90f;" glyph-name="uniE90D" d="M1024 448c0-282.77-229.23-512-512-512s-512 229.23-512 512c0 282.77 229.23 512 512 512s512-229.23 512-512z" />
<glyph unicode="&#xe910;" glyph-name="uniE90E" d="M406.249 286.862l-134.567 154.575c-5.079 5.833-4.468 14.675 1.366 19.755 5.827 5.071 14.676 4.458 19.749-1.371l125.393-144.030 323.731 280.994c5.842 5.078 14.677 4.454 19.754-1.393 5.067-5.838 4.442-14.679-1.398-19.747l-334.286-290.161c-2.854-2.478-6.462-3.654-10.157-3.396s-7.104 1.925-9.584 4.774z" />
<glyph unicode="&#xe911;" glyph-name="pay-fail" d="M1024 448c0-282.77-229.23-512-512-512s-512 229.23-512 512c0 282.77 229.23 512 512 512s512-229.23 512-512z" />
<glyph unicode="&#xe912;" glyph-name="driving" horiz-adv-x="1902" d="M271.673-28.070c-40.012 0-72.446 32.171-72.446 71.86s32.434 71.86 72.446 71.86c40.012 0 72.446-32.171 72.446-71.86s-32.434-71.86-72.446-71.86zM271.673 151.579c-60.018 0-108.669-48.258-108.669-107.789s48.652-107.789 108.669-107.789c60.018 0 108.669 48.258 108.669 107.789s-48.652 107.789-108.669 107.789zM905.578-28.070c-40.012 0-72.446 32.171-72.446 71.86s32.434 71.86 72.446 71.86c40.012 0 72.446-32.171 72.446-71.86s-32.434-71.86-72.446-71.86zM905.578 151.579c-60.018 0-108.669-48.258-108.669-107.789s48.652-107.789 108.669-107.789c60.018 0 108.669 48.258 108.669 107.789s-48.652 107.789-108.669 107.789zM362.231 61.754v-35.93h452.789v35.93zM126.781 61.754c-49.765 0-90.558 40.462-90.558 89.825v71.86c0 39.482 32.642 71.86 72.446 71.86h54.335c51.032 0 76.549 20.046 107.595 69.13 0.933 1.475 1.874 2.972 3.165 5.031 1.572 2.509 2.387 3.809 3.141 5.009 2.512 3.999 4.414 6.988 6.304 9.891 33.309 51.158 67.424 72.624 142.413 72.624h217.339c43.019 0 90.499-28.082 137.82-75.514 17.045-17.085 32.823-35.452 46.902-53.817 4.922-6.421 9.273-12.372 13.002-17.694 2.203-3.144 3.686-5.345 4.401-6.442l3.985-6.12 124.882-28.586c9.944-2.469 79.167-18.776 93.168-22.688 50.489-14.11 55.797-22.807 55.797-94.544 0-45.721-40.834-89.825-90.558-89.825h-36.223v-35.93h36.223c70.45 0 126.781 60.841 126.781 125.754 0 86.553-14.424 110.187-82.197 129.127-14.854 4.151-84.93 20.659-94.526 23.038l-118.045 27.024 11.142-7.758c-0.931 1.429-2.641 3.966-5.084 7.453-4.015 5.731-8.668 12.095-13.914 18.938-14.972 19.53-31.748 39.058-49.988 57.341-53.495 53.621-108.53 86.171-163.568 86.171h-217.339c-88.298 0-133.284-28.306-172.842-89.061-2.015-3.094-4.011-6.232-6.618-10.381-0.766-1.219-1.593-2.539-3.159-5.038-1.268-2.022-2.186-3.482-3.088-4.909-25.108-39.696-41.145-52.295-76.911-52.295h-54.335c-59.81 0-108.669-48.464-108.669-107.789v-71.86c0-69.206 57.010-125.754 126.781-125.754h54.335v35.93h-54.335zM90.558 151.579v35.93h-72.446v-35.93zM1131.973 151.579v35.93h-63.39v-35.93zM326.008 331.228l18.026-19.71c0.117 1.194 0.623 4.255 1.759 9.078 2.009 8.527 5.137 18.605 9.629 30.133 13.094 33.599 34.605 71.728 66.528 113.555l-28.881 21.687c-33.948-44.48-57.115-85.544-71.434-122.286-5.102-13.091-8.726-24.767-11.116-34.912-1.503-6.38-2.266-11.006-2.538-13.763l-1.939-19.71h554.256v35.93h-534.291zM498.068 160.382l-0.086-1.745c0.117 1.194 0.623 4.255 1.759 9.078 2.009 8.527 5.137 18.605 9.629 30.133 13.094 33.599 34.605 71.728 66.528 113.555l-28.881 21.687c-33.948-44.48-57.115-85.544-71.434-122.286-5.102-13.091-8.726-24.767-11.116-34.913-1.503-6.38-2.266-11.006-2.538-13.763l-0.086-1.745v-109.75h36.223v109.75zM525.235 313.263h36.223v161.684h-36.223zM1494.204-64v35.93h-1231.586v-35.93zM1024.173 492.912c-19.257 0-38.018 6.093-53.55 17.389l1.16-0.919-90.558 77.941v-27.138l89.398 77.022c15.532 11.296 34.294 17.389 53.55 17.389h252.693c0.6 0 1.009-0.146 1.092-0.215-0.539 0.452-1.092 1.544-1.092 2.982v-167.217c0 1.438 0.553 2.53 1.092 2.982-0.082-0.069-0.492-0.215-1.092-0.215h-252.693zM1313.088 490.146v167.217c0 19.004-16.869 33.163-36.223 33.163h-252.693c-26.961 0-53.225-8.529-74.969-24.343l-1.16-0.919-106.323-91.51 107.484-92.428c21.744-15.815 48.009-24.343 74.969-24.343h252.693c19.354 0 36.223 14.159 36.223 33.163zM1710.674 618.667c26.961 0 53.225 8.529 74.969 24.343l1.16 0.919 106.323 91.51-107.484 92.428c-21.744 15.815-48.009 24.343-74.969 24.343h-325.139c-19.354 0-36.223-14.159-36.223-33.163v-167.217c0-19.004 16.869-33.163 36.223-33.163h325.139zM1385.535 651.83v167.217c0-1.438-0.553-2.53-1.092-2.982 0.082 0.069 326.231 0.215 326.231 0.215 19.257 0 38.018-6.093 53.55-17.389l-1.16 0.919 90.558-77.941v27.138l-89.398-77.022c-15.532-11.296-34.294-17.389-53.55-17.389h-325.139c-0.553-0.237 0-1.329 0-2.767zM1547.669 169.544c26.961 0 53.225 8.529 74.969 24.343l1.16 0.919 106.323 91.51-107.484 92.428c-21.744 15.815-48.009 24.343-74.969 24.343h-162.135c-19.354 0-36.223-14.159-36.223-33.163v-167.217c0-19.004 16.869-33.163 36.223-33.163h162.135zM1384.443 205.689c0.539-0.452 1.092-1.544 1.092-2.982v167.217c0-1.438-0.553-2.53-1.092-2.982 0.082 0.069 0.492 0.215 1.092 0.215h162.135c19.257 0 38.018-6.093 53.55-17.389l-1.16 0.919 90.558-77.941v27.138l-89.398-77.022c-15.532-11.296-34.294-17.389-53.55-17.389h-162.135c-0.6 0-1.009 0.146-1.092 0.215zM1294.977-28.070l18.112-17.965v952.14c0 9.84 8.192 17.965 18.112 17.965s18.112-8.125 18.112-17.965v-952.14l18.112 17.965h-72.446zM1385.535-64v970.105c0 29.683-24.409 53.895-54.335 53.895s-54.335-24.212-54.335-53.895v-970.105h108.669z" />
<glyph unicode="&#xe913;" glyph-name="shape" horiz-adv-x="1241" d="M794.376 153.212h446.836v806.788h-1241.212v-806.788h446.836l173.77-217.212 173.77 217.212z" />
<glyph unicode="&#xe914;" glyph-name="down-arrow" horiz-adv-x="1536" d="M1442.813 878.686c-20.091 23.085-52.74 23.085-72.831 0l-640.413-737.288-641.669 737.288c-20.091 23.085-52.74 23.085-72.831 0s-20.091-60.599 0-83.684l676.829-777.688c10.046-11.543 22.603-17.314 36.416-17.314 12.557 0 26.37 5.771 36.416 17.314l676.829 777.688c21.347 23.085 21.347 60.599 1.256 83.684v0z" />
<glyph unicode="&#xe915;" glyph-name="circle-point" d="M800 448c0-159.058-128.942-288-288-288s-288 128.942-288 288c0 159.058 128.942 288 288 288s288-128.942 288-288zM1024 448c0 282.77-229.23 512-512 512s-512-229.23-512-512c0-282.77 229.23-512 512-512s512 229.23 512 512zM128 448c0 212.077 171.923 384 384 384s384-171.923 384-384c0-212.077-171.923-384-384-384s-384 171.923-384 384z" />
<glyph unicode="&#xe916;" glyph-name="circle-blod" d="M1024 448c0 282.77-229.23 512-512 512s-512-229.23-512-512c0-282.77 229.23-512 512-512s512 229.23 512 512zM128 448c0 212.077 171.923 384 384 384s384-171.923 384-384c0-212.077-171.923-384-384-384s-384 171.923-384 384z" />
<glyph unicode="&#xe917;" glyph-name="left-arrow" horiz-adv-x="683" d="M617.244-53.523c16.217 14.113 16.217 37.048 0 51.161l-517.918 449.866 517.918 450.749c16.217 14.113 16.217 37.048 0 51.161s-42.569 14.113-58.785 0l-546.297-475.447c-8.108-7.057-12.162-15.878-12.162-25.581 0-8.821 4.054-18.524 12.162-25.581l546.297-475.447c16.217-14.996 42.569-14.996 58.785-0.882v0z" />
<glyph unicode="&#xe918;" glyph-name="down" horiz-adv-x="1920" d="M834.458 32.038l42.253-42.253 1002.591 873.716-84.095 96.499-957.542-834.458 87.302-2.995-834.458 834.458-90.51-90.51z" />
<glyph unicode="&#xe919;" glyph-name="right" horiz-adv-x="559" d="M495.261 431.827v32.913l-482.404-482.404 32.913-32.913 498.86 498.86-511.717 511.717-32.913-32.913z" />
<glyph unicode="&#xe91a;" glyph-name="star-half" horiz-adv-x="1097" d="M215.147-22.558c-20.814 25.581-29.732 59.388-24.381 92.422l37.267 222.671c0.6 3.816-0.644 7.694-3.327 10.373l-155.278 158.128c-29.684 30.201-40.338 75.271-27.498 116.326s46.958 71.005 88.057 77.301l215.837 32.502c3.724 0.557 6.953 2.965 8.651 6.454l96.494 203.077c18.431 38.766 56.436 63.305 98.047 63.305s79.616-24.538 98.047-63.305l-105.367-841.123-192.989-105.342c-15.394-8.445-32.505-12.949-49.911-13.139-32.237 0.010-62.835 14.77-83.648 40.351zM313.662 14.432l192.577 105.116c25.384 14.068 56.174 14.068 81.147 0.226l194.431-106.151c11.633-6.696 25.556-5.855 36.522 2.314 12.031 8.962 18.355 25.179 15.425 42.029l-36.713 222.712c-4.761 27.341 4.062 55.458 23.198 74.399l155.302 158.153c10.673 10.858 14.677 27.798 9.853 43.221-4.592 14.681-16.134 24.814-28.88 26.768l-214.359 31.495c-28.377 3.933-52.555 21.971-64.674 47.513l-96.487 203.062c-6.429 13.521-18.891 21.568-31.99 21.568s-25.561-8.047-31.983-21.553l-96.793-203.698c-12.157-24.976-35.82-42.63-63.525-46.77l-215.653-32.474c-13.189-2.020-24.732-12.153-29.323-26.834-4.824-15.423-0.819-32.362 9.878-43.245l154.766-157.612c19.339-19.307 28.122-46.684 23.791-74.21l-37.205-222.293c-2.026-12.51 1.333-25.246 8.915-34.564 7.020-8.627 16.845-13.367 26.935-13.37 4.532 0.054 9.837 1.45 14.844 4.197zM215.147-22.558c-20.814 25.581-29.732 59.388-24.381 92.422l37.267 222.671c0.6 3.816-0.644 7.694-3.327 10.373l-155.278 158.128c-29.684 30.201-40.338 75.271-27.498 116.326s46.958 71.005 88.057 77.301l215.837 32.502c3.724 0.557 6.953 2.965 8.651 6.454l96.494 203.077c18.431 38.766 56.436 63.305 98.047 63.305s79.616-24.538 98.047-63.305l96.494-203.077c1.668-3.516 4.912-5.936 8.651-6.454l214.949-31.58c41.099-6.296 75.216-36.246 88.057-77.301s2.186-86.125-27.498-116.326l-155.278-158.128c-2.755-2.728-4.005-6.712-3.327-10.603l36.823-223.362c7.516-43.188-9.572-87.014-43.899-112.584s-79.756-28.315-116.703-7.049l-192.989 105.342c-3.327 1.844-7.32 1.844-10.648 0l-192.989-105.342c-15.394-8.445-32.505-12.949-49.911-13.139-32.237 0.010-62.835 14.77-83.648 40.351z" />
<glyph unicode="&#xe91b;" glyph-name="star" d="M262.224-62.908c-32.237 0.010-62.835 14.77-83.648 40.351s-29.732 59.388-24.381 92.422l37.267 222.671c0.6 3.816-0.644 7.694-3.327 10.373l-155.278 158.128c-29.684 30.201-40.338 75.271-27.498 116.326s46.958 71.005 88.057 77.301l215.837 32.502c3.724 0.557 6.953 2.965 8.651 6.454l96.494 203.077c18.431 38.766 56.436 63.305 98.047 63.305s79.616-24.538 98.047-63.305l96.494-203.077c1.668-3.516 4.912-5.936 8.651-6.454l214.949-31.58c41.099-6.296 75.216-36.246 88.057-77.301s2.186-86.125-27.498-116.326l-155.278-158.128c-2.755-2.728-4.005-6.712-3.327-10.603l36.823-223.362c7.516-43.188-9.572-87.014-43.899-112.584s-79.756-28.315-116.703-7.049l-192.989 105.342c-3.327 1.844-7.32 1.844-10.648 0v0l-192.989-105.342c-15.394-8.445-32.505-12.949-49.911-13.139v0z" />
<glyph unicode="&#xe91c;" glyph-name="question" horiz-adv-x="1073" d="M549.381 325.81h-58v28.667c0 23.333 4.667 43.389 14 60.167s26 34.5 50 53.167c23.556 18.222 40.389 35.278 50.5 51.167s15.167 34.167 15.167 54.833c0 22-7.833 40.111-23.5 54.333s-36.944 21.333-63.833 21.333c-42.445 0-79.778-16.111-112-48.333v68c37.334 23.333 77.778 35 121.333 35 43.334 0 77.833-11.389 103.5-34.167s38.5-52.611 38.5-89.5c0-25.778-6-49.222-18-70.333s-32.111-43.333-60.333-66.667c-22.667-18.889-37.889-33.889-45.667-45s-11.667-26.667-11.667-46.667v-26zM520.048 256.143c11.778 0 21.889-4.111 30.333-12.333s12.667-18.222 12.667-30c0-12-4.222-22.056-12.667-30.167s-18.555-12.167-30.333-12.167c-11.333 0-21.222 4-29.667 12s-12.667 18.111-12.667 30.333c0 12 4.167 22.056 12.5 30.167s18.278 12.167 29.833 12.167v0z" />
<glyph unicode="&#xe91d;" glyph-name="place" horiz-adv-x="853" d="M112.654 544.255c0 168.242 134.994 295.101 314.013 295.101s314.013-126.86 314.013-295.101c0-130.196-209.729-360.153-314.013-461.129-104.284 100.914-314.013 330.839-314.013 461.129zM0 555.238c0-221.361 385.956-581.561 402.382-596.78l24.284-22.457 24.284 22.457c16.427 15.219 402.382 375.42 402.382 596.78 0 226.975-187.413 404.762-426.667 404.762s-426.667-177.788-426.667-404.762zM335.306 543.137c0 50.023 40.99 90.731 91.361 90.731s91.361-40.708 91.361-90.731c0-50.023-40.99-90.731-91.361-90.731s-91.361 40.708-91.361 90.731zM248.889 543.137c0-97.351 79.751-176.552 177.778-176.552s177.778 79.201 177.778 176.552c0 97.351-79.751 176.552-177.778 176.552s-177.778-79.201-177.778-176.552z" />
<glyph unicode="&#xe91e;" glyph-name="notice" horiz-adv-x="805" d="M402.286-50.347c56.542 0 102.804 46.848 102.804 104.107h-205.609c0-57.259 46.262-104.107 102.804-104.107v0zM768 117.029c20.198 0 36.571 16.374 36.571 36.571s-16.374 36.571-36.571 36.571h-731.429c-20.198 0-36.571-16.374-36.571-36.571s16.374-36.571 36.571-36.571h731.429zM177.633 549.148c0 126.126 100.883 228.361 224.653 228.361 124.094 0 224.653-101.886 224.653-228.361v-264.134c0-20.198 16.374-36.571 36.571-36.571s36.571 16.374 36.571 36.571v264.134c0 166.658-133.090 301.504-297.796 301.504-164.386 0-297.796-135.199-297.796-301.504v-264.134c0-20.198 16.374-36.571 36.571-36.571s36.571 16.374 36.571 36.571v264.134zM402.286 972.8v0c18.362 0 33.247-14.885 33.247-33.247v-97.502c0-18.362-14.885-33.247-33.247-33.247v0c-18.362 0-33.247 14.885-33.247 33.247v97.502c0 18.362 14.885 33.247 33.247 33.247z" />
<glyph unicode="&#xe91f;" glyph-name="smile" horiz-adv-x="1065" d="M81.92 264v545.493c0 37.942 30.474 68.587 67.998 68.587h765.123c22.622 0 40.96 18.338 40.96 40.96s-18.338 40.96-40.96 40.96h-765.123c-82.871 0-149.918-67.424-149.918-150.507v-545.493c0-83.138 67.223-150.507 150.233-150.507 22.622 0 40.96 18.338 40.96 40.96s-18.338 40.96-40.96 40.96c-37.727 0-68.313 30.652-68.313 68.587zM983.040 264c0-37.957-30.564-68.587-68.471-68.587h-487.196c-22.622 0-40.96-18.338-40.96-40.96s18.338-40.96 40.96-40.96h487.196c83.189 0 150.391 67.345 150.391 150.507v545.493c0 22.622-18.338 40.96-40.96 40.96s-40.96-18.338-40.96-40.96v-545.493zM163.84 18.266c0-81.694 69.817-111.336 128.299-54.040l169.166 165.735-57.33 58.516-169.166-165.735c-4.282-4.195-7.539-6.454-9.020-7.028 2.395 0.927 6.964 1.074 12.153-1.129 5.145-2.184 8.158-5.502 9.131-7.786-0.645 1.515-1.314 5.46-1.314 11.466v160.727h-81.92v-160.727zM314.027 482.133c36.838-96.338 120.631-163.84 218.453-163.84s181.615 67.502 218.453 163.84h-436.907zM314.027 645.973c0-30.162-24.451-54.613-54.613-54.613s-54.613 24.451-54.613 54.613c0 30.162 24.451 54.613 54.613 54.613s54.613-24.451 54.613-54.613zM860.16 645.973c0-30.162-24.451-54.613-54.613-54.613s-54.613 24.451-54.613 54.613c0 30.162 24.451 54.613 54.613 54.613s54.613-24.451 54.613-54.613z" />
<glyph unicode="&#xe920;" glyph-name="account" d="M926.476 155.429c0 131.328-188.786 219.429-414.476 219.429s-414.476-88.1-414.476-219.429c0-131.328 188.786-219.429 414.476-219.429s414.476 88.1 414.476 219.429zM195.048 155.429c0 57.185 138.686 121.905 316.952 121.905s316.952-64.72 316.952-121.905c0-57.185-138.686-121.905-316.952-121.905s-316.952 64.72-316.952 121.905zM715.175 500.612c0 112.004-90.995 202.747-203.175 202.747s-203.175-90.743-203.175-202.747c0-112.004 90.995-202.747 203.175-202.747s203.175 90.743 203.175 202.747zM406.349 500.612c0 58.083 47.271 105.223 105.651 105.223s105.651-47.14 105.651-105.223c0-58.083-47.271-105.223-105.651-105.223s-105.651 47.14-105.651 105.223zM1014.442 547.957c-46.714 237.906-256.571 412.043-502.442 412.043-245.084 0-454.471-173.040-502.026-409.947-6.615-32.954-9.974-66.661-9.974-100.77 0-26.93 21.831-48.762 48.762-48.762s48.762 21.831 48.762 48.762c0 27.655 2.718 54.933 8.067 81.577 38.445 191.525 207.963 331.616 406.41 331.616 199.083 0 368.981-140.979 406.746-333.309 5.126-26.107 7.73-52.815 7.73-79.884 0-26.93 21.831-48.762 48.762-48.762s48.762 21.831 48.762 48.762c0 33.385-3.218 66.386-9.558 98.674z" />
<glyph unicode="&#xe921;" glyph-name="order" horiz-adv-x="878" d="M780.19 87.419c0-30.97-22.802-53.895-55.263-53.895h-572.14c-32.477 0-55.263 22.934-55.263 53.895v564.612c0 31.069 22.669 53.895 55.263 53.895h208.051c26.93 0 48.762 21.831 48.762 48.762s-21.831 48.762-48.762 48.762h-208.051c-86.606 0-152.787-66.638-152.787-151.419v-564.612c0-84.681 66.308-151.419 152.787-151.419h572.14c86.439 0 152.787 66.703 152.787 151.419v205.313c0 26.93-21.831 48.762-48.762 48.762s-48.762-21.831-48.762-48.762v-205.313zM708.673 754.687v48.762h-97.524v-405.581h97.524v48.762zM614.4 960h104.025v-102.657h-104.025v102.657zM648.513 252.727l-34.113 91.333h104.025l-34.113-91.333c-9.886-26.468-26.027-26.166-35.8 0zM424.125 472.381c13.465 0 24.381 10.916 24.381 24.381s-10.916 24.381-24.381 24.381h-219.325c-13.465 0-24.381-10.916-24.381-24.381s10.916-24.381 24.381-24.381h219.325zM424.125 326.095c13.465 0 24.381 10.916 24.381 24.381s-10.916 24.381-24.381 24.381h-219.325c-13.465 0-24.381-10.916-24.381-24.381s10.916-24.381 24.381-24.381h219.325z" />
<glyph unicode="&#xe922;" glyph-name="lock" horiz-adv-x="922" d="M102.4 569.263l-51.2-51.2h819.2l-51.2 51.2v-582.063l51.2 51.2h-819.2l51.2-51.2v582.063zM51.2-64h819.2c28.277 0 51.2 22.923 51.2 51.2v582.063c0 28.277-22.923 51.2-51.2 51.2h-819.2c-28.277 0-51.2-22.923-51.2-51.2v-582.063c0-28.277 22.923-51.2 51.2-51.2zM711.919 762.639c-23.66 114.47-128.811 197.361-251.119 197.361-121.913 0-226.822-82.363-250.906-196.344-3.378-15.989-5.094-32.343-5.094-48.877 0-28.277 22.923-51.2 51.2-51.2s51.2 22.923 51.2 51.2c0 9.406 0.971 18.666 2.882 27.708 13.937 65.961 76.544 115.113 150.718 115.113 74.409 0 137.149-49.458 150.838-115.687 1.831-8.86 2.762-17.926 2.762-27.134 0-28.277 22.923-51.2 51.2-51.2s51.2 22.923 51.2 51.2c0 16.183-1.643 32.194-4.881 47.86z" />
<glyph unicode="&#xe923;" glyph-name="quit" horiz-adv-x="1205" d="M1193.303 372.148c-55.198-253.003-300.435-436.148-585.744-436.148-284.389 0-529.061 181.98-585.248 433.899-7.891 35.378-11.899 71.583-11.899 108.219 0 33.267 26.968 60.235 60.235 60.235s60.235-26.968 60.235-60.235c0-27.792 3.035-55.203 9.010-81.994 43.491-194.994 237.985-339.653 467.666-339.653 230.411 0 425.326 145.564 468.042 341.357 5.727 26.249 8.635 53.087 8.635 80.291 0 33.267 26.968 60.235 60.235 60.235s60.235-26.968 60.235-60.235c0-35.859-3.84-71.305-11.403-105.97zM602.353 900.042c0.178-0.277 0-482.437 0-482.437-0.178 0.277 0 482.437 0 482.437zM602.353 357.647c33.267 0 60.235 27.447 60.235 59.958v482.437c0 33.114-26.736 59.958-60.235 59.958-33.267 0-60.235-27.447-60.235-59.958v-482.437c0-33.114 26.736-59.958 60.235-59.958z" />
<glyph unicode="&#xe924;" glyph-name="card" horiz-adv-x="1408" d="M128 191.757c0-70.475 57.477-127.757 128.612-127.757h894.777c70.933 0 128.612 57.435 128.612 127.757v512.486c0 70.475-57.477 127.757-128.612 127.757h-894.777c-70.933 0-128.612-57.435-128.612-127.757v-512.486zM256.612 960h894.777c141.723 0 256.612-114.485 256.612-255.757v-512.486c0-141.251-115.223-255.757-256.612-255.757h-894.777c-141.723 0-256.612 114.485-256.612 255.757v512.486c0 141.251 115.223 255.757 256.612 255.757zM1126.4 576c17.673 0 32 14.327 32 32s-14.327 32-32 32h-844.8c-17.673 0-32-14.327-32-32s14.327-32 32-32h844.8zM1126.4 448c17.673 0 32 14.327 32 32s-14.327 32-32 32h-140.8c-17.673 0-32-14.327-32-32s14.327-32 32-32h140.8z" />
<glyph unicode="&#xe925;" glyph-name="roalcar" d="M1024 448c0 282.77-229.23 512-512 512s-512-229.23-512-512c0-282.77 229.23-512 512-512s512 229.23 512 512zM39.385 448c0 261.018 211.597 472.615 472.615 472.615s472.615-211.597 472.615-472.615c0-261.018-211.597-472.615-472.615-472.615s-472.615 211.597-472.615 472.615zM311.924 359.241c0 20.553 16.83 37.246 37.633 37.246s37.633-16.693 37.633-37.246c0-20.553-16.83-37.246-37.633-37.246s-37.633 16.693-37.633 37.246zM406.883 359.241c0 31.465-25.683 56.938-57.325 56.938s-57.325-25.473-57.325-56.938c0-31.465 25.683-56.938 57.325-56.938s57.325 25.473 57.325 56.938zM681.912 321.995c-20.803 0-37.633 16.693-37.633 37.246s16.83 37.246 37.633 37.246c20.803 0 37.633-16.693 37.633-37.246s-16.83-37.246-37.633-37.246zM681.912 416.18c-31.643 0-57.325-25.473-57.325-56.938s25.683-56.938 57.325-56.938c31.643 0 57.325 25.473 57.325 56.938s-25.683 56.938-57.325 56.938zM397.036 379.077v-19.692h237.396v19.692zM273.59 369.087c-25.916 0-47.129 21.040-47.129 46.664v37.674c0 20.445 16.939 37.246 37.633 37.246h28.488c26.879 0 40.351 10.583 56.689 36.412-1.331-2.104 5.030 8.020 6.608 10.444 17.398 26.719 35.183 37.909 74.392 37.909h113.95c22.461 0 47.285-14.681 72.038-39.491 8.924-8.944 17.184-18.56 24.556-28.175 4.406-5.747 7.511-10.179 9.105-12.627l2.173-3.337 65.605-15.016c5.214-1.294 41.5-9.842 48.834-11.891 26.306-7.351 28.979-11.73 28.979-49.149 0-23.725-21.24-46.664-47.129-46.664h-18.992v-19.692h18.992c37.118 0 66.821 32.080 66.821 66.357 0 45.568-7.673 58.139-43.371 68.115-7.795 2.178-44.542 10.834-49.568 12.080l-61.896 14.169 6.054-4.225c-1.856 2.85-5.247 7.689-9.979 13.863-7.86 10.252-16.667 20.503-26.243 30.102-28.105 28.169-57.028 45.275-85.979 45.275h-113.95c-46.402 0-70.089-14.904-90.895-46.856-1.681-2.581-8.174-12.916-6.748-10.663-13.103-20.715-21.418-27.247-40.047-27.247h-28.488c-31.533 0-57.325-25.582-57.325-56.938v-37.674c0-36.537 30.065-66.357 66.821-66.357h28.488v19.692h-28.488zM378.045 510.364l9.799-10.81c0.321 3.26 1.959 10.212 5.94 20.427 6.849 17.574 18.107 37.527 34.82 59.424l-15.654 11.948c-30.719-40.247-42.894-71.486-44.703-89.87l-1.064-10.81h290.99v19.692h-280.127zM468.606 420.367l-0.204 1.992c-1.583 15.151 5.883 39.815 31.524 73.41l-15.654 11.948c-28.609-37.482-37.579-67.114-35.478-87.14 0.099-0.942 0.19-1.524 0.322-2.202l-0.204 1.992v-57.539h19.692v57.539zM481.619 500.518h19.692v84.766h-19.692z" />
<glyph unicode="&#xe926;" glyph-name="close" d="M10.575-53.425c7.050-7.050 15.862-10.575 25.556-10.575s18.506 3.525 25.556 10.575l450.313 450.313 450.313-450.313c7.050-7.050 15.862-10.575 25.556-10.575 8.812 0 18.506 3.525 25.556 10.575 14.1 14.1 14.1 37.012 0 51.112l-450.313 450.313 450.313 450.313c14.1 14.1 14.1 37.012 0 51.112s-37.012 14.1-51.112 0l-450.313-450.313-450.313 450.313c-14.1 14.1-37.012 14.1-51.112 0s-14.1-37.012 0-51.112l450.313-450.313-450.313-450.313c-14.1-14.1-14.1-37.012 0-51.112v0z" />
<glyph unicode="&#xe927;" glyph-name="plane" horiz-adv-x="1829" d="M1023.232 652.566c-39.698 23.958-82.078 47.913-125.466 70.308-41.877 21.615-82.56 40.652-121.341 56.41-119.032 48.366-211.78 63.662-274.135 31.424-28.357-14.684-55.425-28.679-80.297-41.524-25.796-13.317-25.796-13.317-31.689-16.354l-41.898-21.598 314.842-353.889 10.529 56.796-266.031-137.524 25.010 3.149-252.455 58.204-168.416-87.043 247.849-247.646c87.064-69.293 208.709-63.944 323.756-4.46l1120.17 579.043c79.464 41.097 111.177 140.121 70.82 220.459-40.486 80.633-138.8 113.043-218.559 71.814l-518.083-267.811 33.587-64.975 518.083 267.811c43.45 22.46 97.334 4.697 119.608-39.665 22.437-44.664 4.705-100.030-39.051-122.66l-1120.166-579.042c-92.068-47.603-183.972-51.644-241.604-5.979l-209.305 209.475-9.058-58.359 112.025 57.898-25.007-3.148 252.457-58.205 319.781 165.31-314.805 353.847-10.566-56.815c5.914 3.049 5.914 3.049 31.737 16.379 24.894 12.856 51.985 26.864 80.347 41.55 36.743 18.996 112.937 6.43 212.99-34.224 36.571-14.86 75.295-32.98 115.326-53.642 41.831-21.592 82.828-44.765 121.221-67.935 22.985-13.872 39.92-24.611 49.065-30.641l40.26 61.066c-9.917 6.538-27.663 17.792-51.532 32.197zM1163.907 400.146l47.347-55.751c129.058 109.604 184.192 253.178 188.453 403.889l-73.114 2.067c-3.722-131.645-51.338-255.642-162.686-350.206z" />
<glyph unicode="&#xe928;" glyph-name="tel" horiz-adv-x="904" d="M722.572-38.589l-0.012-0.002c37.018 6.527 69.412 21.368 96.304 44.146 28.722 24.326 48.624 57.519 63.936 94.377 1.907 5.683 2.087 6.308 3.995 12.131 21.406 65.314-31.125 153.45-130.864 208.308-54.363 29.887-110.868 42.557-155.049 34.767-32.838-5.79-57.247-22.774-69.375-48.102-3.039-2.911-8.256-6.933-12.971-7.764-1.353-0.238-4.167-0.735-9.244 3.398-0.325 0.243-0.65 0.486-0.981 0.754-30.339 28.242-59.258 59.316-86.003 92.371-24.572 30.386-47.205 62.293-67.298 94.919-3.879 10.748-3.405 16.534-2.442 18.305 0.692 1.274 3.212 2.469 3.236 2.473 23.971 4.825 43.528 19.682 57.056 43.030 25.458 43.96 27.285 113.674 4.869 186.49-34.351 111.637-110.822 186.903-177.876 175.080-0.214-0.038-1.682-0.321-1.906-0.361-3.169-0.635-6.225-1.497-9.192-2.52-41.492-5.391-77.81-20.824-107.338-45.817-136.652-115.748-90.595-395.695 104.835-637.317 150.825-186.453 350.276-294.417 496.32-268.666v0zM610.883 298.421c31.486 5.552 75.795-5.17 118.55-28.674 74.552-40.984 115.53-104.916 105.772-135.73-1.494-4.72-2.599-7.706-3.451-10.114-10.095-28.512-27.884-55.952-49.125-73.957-19.26-16.329-42.836-27.013-70.056-31.813-124.69-21.986-306.802 80.152-442.895 248.394-169.481 209.527-220.782 464.36-112.021 556.478 21.826 18.456 49.416 29.775 81.118 33.39 2.325 0.285 4.604 0.836 6.782 1.671 1.211 0.488 2.455 0.931 3.754 1.212 32.98 5.815 88.64-50.81 114.596-135.16 17.165-55.757 17.296-110.739 0.324-140.048-7.961-13.736-16.468-15.436-19.255-16.002-2.412-0.425-28.274-5.836-41.867-30.97-10.374-19.165-10.243-42.63 0.384-69.697 0.626-1.589 1.388-3.132 2.282-4.601 21.775-35.558 46.376-70.368 73.127-103.448 29.187-36.075 60.837-69.944 94.089-100.675 1.477-1.367 3.073-2.56 4.745-3.567 15.544-11.343 33.025-15.687 50.803-12.553 28.194 4.971 46.784 27.461 48.809 30.019 1.753 2.209 3.19 4.688 4.225 7.349 4.656 11.85 18.513 16.594 29.308 18.498v0zM664.8 504.892c13.266 2.339 23.342 14.097 23.389 28.336 0.083 26.957-10.138 52.42-28.769 71.699-18.642 19.252-43.467 30.031-69.902 30.298-15.751 0.15-28.509-12.706-28.556-28.749-0.052-16.042 12.664-29.184 28.389-29.336 11.226-0.122 21.769-4.691 29.677-12.878 7.916-8.158 12.248-18.977 12.226-30.438-0.061-16.044 12.648-29.161 28.379-29.341 1.754-0.016 3.495 0.114 5.168 0.409v0zM759.128 523.652c13.265 2.339 23.343 14.071 23.381 28.309 0.313 97.814-77.443 178.205-173.33 179.209-15.677 0.161-28.509-12.707-28.557-28.747-0.053-16.019 12.662-29.164 28.375-29.318 64.484-0.687 116.777-54.754 116.572-120.526-0.050-16.045 12.665-29.185 28.392-29.34 1.753-0.016 3.492 0.117 5.168 0.413v0zM873.104 511.531c13.264 2.339 23.345 14.069 23.392 28.311 0.25 81.365-30.573 158.179-86.804 216.302-56.22 58.126-131.108 90.598-210.877 91.441-15.69 0.16-28.496-12.703-28.556-28.748-0.049-16.043 12.66-29.161 28.39-29.339 64.542-0.673 125.151-26.959 170.66-73.991 45.499-47.059 70.447-109.224 70.252-175.070-0.053-16.019 12.647-29.163 28.378-29.342 1.766-0.015 3.491 0.142 5.166 0.437v0z" />
<glyph unicode="&#xe929;" glyph-name="note" horiz-adv-x="1185" d="M1139.795 444.762v20.078l-279.461-484.041 17.388 10.039h-558.923l17.388-10.039-279.461 484.041v-20.078l279.461 484.041-17.388-10.039h558.923l-17.388 10.039 279.461-484.041zM889.315 958.921h-582.107l-291.054-504.12 291.054-504.12h582.107l291.054 504.12-291.054 504.12zM462.335 618.452h46.355c6.013-12.027 19.795-20.046 33.827-20.046h120.274c14.033 0 27.813 8.018 33.827 20.046h46.355v-340.774h-280.637v340.774h-0.001zM542.516 678.589h120.274v-40.091h-120.274v40.091zM602.654 738.726c-14.033 0-24.18-5.888-28.189-11.902-2.005-2.004-3.633-6.139-5.638-8.143h-26.31c-22.050 0-40.091-18.041-40.091-40.091h-40.091c-34.077 0-60.137-26.059-60.137-60.136v-340.774c0-34.077 26.059-60.136 60.137-60.136h280.637c34.077 0 60.136 26.059 60.136 60.136v340.774c0 34.077-26.059 60.136-60.136 60.136h-40.091c0 22.050-18.040 40.091-40.091 40.091h-26.31c-2.004 2.004-3.633 6.139-5.638 8.143-4.010 6.014-14.158 11.902-28.19 11.902v0zM521.16 515.454h169.829v-39.927h-169.829zM521.16 429.023h169.829v-39.927h-169.829z" />
<glyph unicode="&#xe92a;" glyph-name="slope" d="M512.193 959.588c-282.258 0-510.927-228.896-510.927-511.638 0-282.423 228.669-511.382 510.927-511.382 282.131 0 510.8 228.96 510.8 511.382 0 282.743-228.669 511.638-510.8 511.638v0zM512.193-17.010c-256.589 0-464.627 208.101-464.627 464.96 0 257.043 208.099 465.149 464.627 465.149 256.467 0 464.502-208.108 464.502-465.149 0.001-256.855-208.1-464.96-464.502-464.96v0zM215.621 519.037h58.877v-327.299h-58.877zM395.212 452.595h59.010v-260.856h-59.010zM574.939 366.588h58.813v-174.849h-58.813zM754.473 336.243h58.94v-144.438h-58.94zM850.837 408.869c5.473 8.58 4.196 19.994-3.15 27.349l-221.105 221.386c-8.623 8.633-22.619 8.587-31.194 0-8.573-8.583-8.618-22.597 0.003-31.228l152.572-152.765-506.971 177.97c-11.445 4.062-23.984-2.013-28.044-13.47-2.962-8.358-0.593-17.215 5.198-23.011 2.328-2.329 5.062-4.157 8.391-5.204l598.213-210.251c9.672-3.378 20.612 0.458 26.087 9.225z" />
<glyph unicode="&#xe92b;" glyph-name="fan" d="M237.723 960c-131.28 0-237.723-106.442-237.723-237.723 0-131.277 106.442-237.689 237.723-237.689h237.72v237.691c0 131.28-106.442 237.722-237.72 237.722zM402.268 557.73h-164.545c-90.721 0-164.549 73.826-164.549 164.546 0 90.754 73.828 164.579 164.549 164.579 90.751 0 164.545-73.825 164.545-164.579v-164.546zM1024 722.278c0 131.28-106.446 237.722-237.723 237.722s-237.725-106.442-237.725-237.722v-237.689h237.725c131.279 0 237.723 106.411 237.723 237.689zM621.73 722.278c0 90.754 73.794 164.579 164.546 164.579 90.72 0 164.548-73.825 164.548-164.579 0-90.72-73.826-164.546-164.548-164.546h-164.546v164.546zM0 173.757c0-131.314 106.442-237.723 237.723-237.723 131.279 0 237.72 106.409 237.72 237.723v237.689h-237.72c-131.28 0-237.723-106.412-237.723-237.689zM402.268 173.757c0-90.757-73.794-164.58-164.545-164.58-90.721 0-164.549 73.824-164.549 164.58 0 90.717 73.828 164.546 164.549 164.546h164.545v-164.546zM786.277 411.447h-237.725v-237.689c0-131.28 106.448-237.723 237.725-237.723s237.723 106.443 237.723 237.723c0 131.277-106.445 237.689-237.723 237.689zM786.277 9.177c-90.752 0-164.546 73.824-164.546 164.58v164.546h164.546c90.72 0 164.548-73.828 164.548-164.548 0-90.755-73.826-164.579-164.548-164.579z" />
<glyph unicode="&#xe92c;" glyph-name="bolt" horiz-adv-x="1054" d="M941.38 956.143c42.961-12.81 69.259-41.564 79.905-84.687 2.23-9.028 3.416-18.559 3.42-27.864 0.182-216.375 0.147-432.746 0.147-649.126 0-10.58-0.005-10.58-10.891-10.58-8.563 0-17.133 0.146-25.692-0.059-4.41-0.105-6.395 1.534-6.021 5.997 0.163 1.946 0.020 3.913 0.020 5.865 0 211.733 0.301 423.459-0.238 635.184-0.116 45.558-30.566 78.169-73.968 86.391-7.556 1.435-15.44 1.581-23.169 1.581-250.553 0.073-501.109 0.121-751.663-0.020-24.915-0.011-47.543-8.011-65.378-25.643-14.631-14.473-24.050-32.415-25.155-53.474-1.040-19.923-1.512-39.896-1.519-59.844-0.101-236.422-0.162-472.842 0.078-709.266 0.020-23.894 7.081-46.129 23.933-63.854 14.094-14.828 31.451-24.362 52.124-26.724 7.686-0.881 15.447-1.452 23.175-1.459 214.586-0.075 429.172-0.059 643.759-0.059 10.072 0 10.266-0.009 10.027-9.927-0.252-10.391-0.927-20.772-1.413-31.152h-697.428c-44.807 8.328-72.12 33.795-88.17 72.569-3.209 7.761-4.885 16.159-7.263 24.258v827.454c2.493 15.276 6.694 28.205 13.442 40.131 12.386 21.896 29.438 39.030 53.38 48.042 10.752 4.048 21.998 6.787 33.023 10.122l825.16-0.001c5.463-1.277 11.012-2.258 16.376-3.855zM941.158 37.175h107.186v41.079h-107.565v94.947h-42.383v-95.284h-103.672v-40.876h103.86v-99.63h42.579l-0.005 99.765zM360.794 97.343c126.457 140.967 252.908 281.931 380.356 424.002-88.143-3.38-174.25-6.676-262.037-10.045 87.849 114.746 174.82 228.334 262.969 343.477-2.804-0.921-3.472-1.090-4.113-1.356-68.61-28.199-137.228-56.376-205.78-84.723-2.738-1.135-5.269-3.502-7.134-5.885-10.663-13.643-21.135-27.427-31.594-41.227-70.894-93.491-141.766-186.996-212.619-280.512-1.378-1.809-2.498-3.809-4.437-6.788 90.053-2.634 178.782-5.227 269.086-7.866-62.416-110.091-124.248-219.139-186.074-328.189 0.456-0.299 0.916-0.591 1.375-0.888z" />
<glyph unicode="&#xe92d;" glyph-name="pen" horiz-adv-x="1185" d="M861.487-18.508l17.388 10.039h-559.146l17.388-10.039-279.573 484.234v-20.078l279.573 484.234-17.388-10.039h559.146l-17.388 10.039 279.573-484.234v20.078l-279.573-484.234zM1181.633 455.687l-291.165 504.313h-582.33l-291.165-504.313 291.165-504.313h582.33l291.165 504.313zM392.475 253.115l141.449 39.631 14.633 14.657-99.575 99.577-14.788-14.764-41.719-139.101zM465.575 423.573l99.591-99.588 194.632 194.658-99.575 99.578-194.648-194.648zM804.723 623.090l-40.067 40.066c-22.918 22.918-36.591 22.918-59.501 0l-28.329-28.353 99.577-99.564 28.33 28.339c22.909 22.92 22.909 36.591-0.011 59.512zM532.245 660.326c-22.918 22.92-36.604 22.92-59.522 0l-94.719-94.706-16.593 16.595 99.577 99.575c22.918 22.92 60.062 22.92 82.983 0l54.849-54.853-16.593-16.593-49.982 49.981zM419.491 557.311l33.201 33.201 16.606-16.595-33.201-33.199-1.971 1.971 18.553-18.579 49.781 49.807 16.609-16.606-49.784-49.78 5.069-5.071-16.603-16.595-79.755 79.755 16.606 16.595 24.89-24.904zM651.855 324.961l74.685-74.684 78.114 78.131c22.918 22.922 22.918 36.606 0 59.524l-52.388 52.385 16.593 16.599 57.257-57.26c22.917-22.918 22.917-60.059 0-82.982l-99.577-99.576-98.754 98.754 16.596 16.596 7.473-7.487zM718.244 358.146l-49.783-49.779-16.606 16.593 49.781 49.804 16.608-16.619zM726.54 333.269l16.595-16.605-41.486-41.486-16.593 16.606 41.484 41.485z" />
<glyph unicode="&#xe92e;" glyph-name="compass" horiz-adv-x="1185" d="M1134.805 447.643v20.078l-278.352-482.12 17.388 10.039h-556.705l17.388-10.039-278.352 482.12v-20.078l278.352 482.12-17.388-10.039h556.705l-17.388 10.039 278.352-482.12zM885.433 959.881h-579.889l-289.945-502.199 289.945-502.199h579.889l289.945 502.199-289.945 502.199zM682.727 538.413l-321.315 160.567 160.658-321.225 321.224-160.658-160.566 321.315zM558.555 412.469l-123.314 211.042 211.547-121.403-88.233-89.639z" />
<glyph unicode="&#xe92f;" glyph-name="science" horiz-adv-x="1205" d="M1153.054 437.107v20.078l-282.408-489.144 17.388 10.039h-564.815l17.388-10.039-282.408 489.144v-20.078l282.408 489.144-17.388-10.039h564.815l-17.388 10.039 282.408-489.144zM899.627 956.369h-588l-294-509.223 294-509.223h588l294 509.223-294 509.223zM777.549 510.474c-53.398 0-96.854-43.455-96.854-96.872 0-53.369 43.456-96.841 96.854-96.841 53.417 0 96.844 43.472 96.844 96.841 0 53.417-43.428 96.872-96.844 96.872v0zM777.549 343.014c-38.928 0-70.616 31.663-70.616 70.588 0 38.957 31.688 70.648 70.616 70.648 38.944 0 70.606-31.691 70.606-70.648 0-38.925-31.662-70.588-70.606-70.588v0zM777.549 458.041c-24.465 0-44.392-19.945-44.392-44.436 0-24.462 19.927-44.382 44.392-44.382 24.481 0 44.397 19.917 44.397 44.382 0 24.488-19.916 44.436-44.397 44.436v0zM441.708 498.234c0 5.886-0.664 11.639-1.872 17.193l110.588 78.59c13.301-9.749 29.693-15.5 47.431-15.5 44.348 0 80.284 35.948 80.284 80.283 0 44.364-35.936 80.337-80.284 80.337-44.354 0-80.299-35.974-80.299-80.337 0-15.85 4.633-30.645 12.598-43.12l-102.16-72.588c-14.419 21.366-38.866 35.425-66.569 35.425-44.372 0-80.327-35.964-80.327-80.283 0-44.388 35.954-80.336 80.327-80.336 44.32 0 80.284 35.948 80.284 80.336v0zM777.549 553.091c-26.544 0-51.357-7.407-72.507-20.295l-45.775 64.659c-6.95-6.941-15.058-12.726-23.995-17.030l46.432-65.532c-26.848-25.442-43.609-61.371-43.609-101.29 0-24.894 6.546-48.223 17.976-68.446l-58.26-32.479c6.274-7.536 11.314-16.12 14.717-25.464l60.742 33.86c25.552-28.786 62.796-46.93 104.279-46.93 77.006 0 139.476 62.454 139.476 139.46 0 77.056-62.47 139.489-139.476 139.489v0zM777.549 290.543c-67.855 0-123.072 55.226-123.072 123.059 0 67.874 55.217 123.116 123.072 123.116 67.852 0 123.078-55.241 123.078-123.116 0-67.833-55.226-123.059-123.078-123.059v0zM531.036 337.517c-10.394 0-20.311-2-29.411-5.592l-74.605 109.473c-6.48-7.464-14.204-13.834-22.834-18.712l72.501-106.367c-15.932-14.689-25.959-35.723-25.959-59.096 0-44.353 35.958-80.283 80.312-80.283 44.344 0 80.284 35.929 80.284 80.283-0.003 44.364-35.939 80.293-80.287 80.293v0z" />
<glyph unicode="&#xe930;" glyph-name="circle" horiz-adv-x="1073" d="M1048.381 448c0 282.77-229.23 512-512 512s-512-229.23-512-512c0-282.77 229.23-512 512-512s512 229.23 512 512zM73.143 448c0 255.839 207.399 463.238 463.238 463.238s463.238-207.399 463.238-463.238c0-255.839-207.399-463.238-463.238-463.238s-463.238 207.399-463.238 463.238z" />
<glyph unicode="&#xe931;" glyph-name="flag" d="M1024 448c0 282.77-229.23 512-512 512s-512-229.23-512-512c0-282.77 229.23-512 512-512s512 229.23 512 512zM39.385 448c0 261.018 211.597 472.615 472.615 472.615s472.615-211.597 472.615-472.615c0-261.018-211.597-472.615-472.615-472.615s-472.615 211.597-472.615 472.615zM557.049 410.081c-81.573 6.188-126.843-8.285-150.837-22.094v-173.815c0-6.794-5.526-12.302-12.308-12.302-6.826 0-12.322 5.509-12.322 12.302v457.628c-14.302 5.080-24.615 18.594-24.615 34.662 0 20.396 16.519 36.922 36.937 36.922 20.39 0 36.937-16.526 36.937-36.922 0-16.053-10.328-29.567-24.629-34.662v-53.685c34.972 4.342 101.386 1.196 158.668-67.449 82.148-98.42 247.746-60.803 247.746-60.803s-110.457-90.784-255.577-79.782v0zM393.903 718.78c-6.826 0-12.322-5.523-12.322-12.317s5.512-12.302 12.322-12.302c6.782 0 12.308 5.524 12.308 12.302 0 6.794-5.526 12.317-12.308 12.317v0zM545.967 534.892c-41.325 49.52-87.541 59.917-119.012 59.917-7.92 0-14.908-0.664-20.626-1.506v-177.714c24.393 11.209 60.636 20.573 113.561 20.573 12.411 0 25.56-0.532 39.050-1.551 7.476-0.561 15.085-0.856 22.649-0.856 48.181 0 91.767 11.609 126.917 25.698-54.387 4.549-118.45 22.582-162.539 75.439v0zM356.966 223.152c-22.059-4.253-36.952-12.184-36.952-21.282 0-11.52 23.699-21.135 55.672-23.852 1.906-0.443 3.841-0.782 5.881-0.782h24.629c2.024 0 3.99 0.325 5.866 0.782 31.973 2.733 55.702 12.332 55.702 23.852 0 9.098-14.893 17.029-36.937 21.282v24.31c36.080-7.296 61.553-24.959 61.553-45.606 0-27.204-44.089-49.239-98.476-49.239-54.43 0-98.519 22.035-98.519 49.239 0 20.632 25.501 38.31 61.581 45.606v-24.31z" />
<glyph unicode="&#xe932;" glyph-name="eat" d="M1024 448c0 282.77-229.23 512-512 512s-512-229.23-512-512c0-282.77 229.23-512 512-512s512 229.23 512 512zM39.385 448c0 261.018 211.597 472.615 472.615 472.615s472.615-211.597 472.615-472.615c0-261.018-211.597-472.615-472.615-472.615s-472.615 211.597-472.615 472.615zM415.195 577.634c7.588 0 12.648 5.054 12.648 12.636v101.094c0 7.582-5.059 12.636-12.648 12.636s-12.648-5.054-12.648-12.636v-101.094c0-7.582 5.059-12.636 12.648-12.636v0zM364.605 577.634c7.588 0 12.648 5.054 12.648 12.636v101.094c0 7.582-5.059 12.636-12.648 12.636s-12.647-5.054-12.647-12.636v-101.094c0-7.582 5.058-12.636 12.647-12.636v0zM465.785 704c-7.588 0-12.648-5.054-12.648-12.636v-180.704c0-6.318-2.529-12.636-7.588-17.691l-22.765-22.746-7.588-8.846v-212.296c0-13.9-11.383-25.273-25.295-25.273s-25.295 11.373-25.295 25.273v212.296l-30.354 30.328c-5.058 5.055-7.588 11.373-7.588 17.692v181.968c0 7.582-5.058 12.636-12.647 12.636s-12.648-5.054-12.648-12.636v-180.704c0-13.9 5.059-26.537 15.177-35.382l22.765-24.010v-202.186c0-27.8 22.765-50.546 50.59-50.546s50.589 22.746 50.589 50.546v202.186l22.765 22.746c10.118 10.109 15.177 22.746 15.177 35.383v181.968c0 7.582-5.058 12.636-12.647 12.636v0zM668.144 704v0c-69.56 0-126.474-56.865-126.474-126.366v-202.186l50.589-50.547v-75.82c0-27.8 22.765-50.546 50.59-50.546s50.59 22.746 50.59 50.546v429.646c0 13.9-11.383 25.273-25.295 25.273v0zM668.144 249.081c0-13.9-11.383-25.273-25.295-25.273s-25.295 11.373-25.295 25.273v85.93l-50.59 50.546v192.077c0 55.601 45.531 101.093 101.179 101.093v-429.646z" />
<glyph unicode="&#xe933;" glyph-name="text" d="M1024 448c0 282.77-229.23 512-512 512s-512-229.23-512-512c0-282.77 229.23-512 512-512s512 229.23 512 512zM39.385 448c0 261.018 211.597 472.615 472.615 472.615s472.615-211.597 472.615-472.615c0-261.018-211.597-472.615-472.615-472.615s-472.615 211.597-472.615 472.615zM758.763 235.028h-20.775v226.521c0 20.328-17.807 37.753-38.583 37.753h-47.489c-5.934 0-11.869-5.807-11.869-11.616s5.935-11.617 11.869-11.617h47.489c5.935 0 11.872-5.807 11.872-11.616v-226.519h-89.040v368.82c0 20.328-17.807 37.752-38.583 37.752h-213.693c-20.775 0-38.583-17.423-38.583-37.752v-371.726h-23.744c-5.937 0-11.872-5.807-11.872-11.614 0-5.81 5.935-11.617 11.872-11.617h448.161c5.935 0 11.869 5.807 11.869 11.617 0.001 5.807-2.965 11.614-8.903 11.614zM358.090 235.028v371.726c0 5.807 5.937 11.617 11.871 11.617h216.662c5.935 0 11.869-5.809 11.869-11.617v-371.726h-240.402zM530.231 531.246h-103.878c-5.937 0-11.871-5.809-11.871-11.617s5.934-11.617 11.871-11.617h103.878c5.935 0 11.872 5.809 11.872 11.617s-5.937 11.617-11.872 11.617zM530.231 441.22h-103.878c-5.937 0-11.871-5.809-11.871-11.617s5.934-11.616 11.871-11.616h103.878c5.935 0 11.872 5.807 11.872 11.616 0 5.807-5.937 11.617-11.872 11.617zM530.231 365.713h-103.878c-5.937 0-11.871-5.809-11.871-11.617s2.968-14.521 11.871-14.521h103.878c5.935 0 11.872 5.809 11.872 11.617s-5.937 14.521-11.872 14.521z" />
<glyph unicode="&#xe934;" d="M1024 448c0-282.77-229.23-512-512-512s-512 229.23-512 512c0 282.77 229.23 512 512 512s512-229.23 512-512z" />
<glyph unicode="&#xe935;" d="M380.704 316.067l49.062 49.062c-64.623 90.916-48.814 216.181 36.377 288.183 85.191 71.999 211.344 66.717 290.214-12.154 78.87-78.874 84.156-205.023 12.154-290.214s-197.267-101.004-288.179-36.377l-49.063-49.062 63.221-63.224c9.297-8.978 13.026-22.274 9.751-34.775-3.272-12.504-13.035-22.268-25.536-25.539-12.504-3.272-25.8 0.454-34.777 9.751l-63.224 63.224-63.221-63.224c-8.981-9.297-22.274-13.023-34.778-9.751-12.501 3.272-22.268 13.035-25.539 25.539-3.272 12.501 0.457 25.797 9.751 34.775l63.224 63.224-63.224 63.223c-13.551 14.030-13.357 36.335 0.436 50.127s36.097 13.987 50.13 0.436l63.221-63.224zM705.901 590.558c-55.851 55.891-146.434 55.925-202.326 0.074s-55.925-146.438-0.074-202.329c55.851-55.891 146.437-55.922 202.329-0.071s55.922 146.435 0.071 202.326z" />
<glyph unicode="&#xe936;" glyph-name="hill" d="M1024 448c0 282.77-229.23 512-512 512s-512-229.23-512-512c0-282.77 229.23-512 512-512s512 229.23 512 512zM39.385 448c0 261.018 211.597 472.615 472.615 472.615s472.615-211.597 472.615-472.615c0-261.018-211.597-472.615-472.615-472.615s-472.615 211.597-472.615 472.615zM784.313 363.499l-150.281 187.547c-2.682 3.444-6.755 5.469-11.025 5.57s-8.443-1.621-11.323-4.76l-76.978-83.546-110.053 179.041c-2.682 4.455-7.449 7.088-12.614 7.088s-9.933-2.734-12.615-7.088l-180.376-293.575c-4.371-7.089-2.285-16.507 4.668-20.963s16.19-2.329 20.56 4.76l167.762 273.018 167.762-273.018c4.37-7.088 13.508-9.215 20.56-4.76 6.953 4.456 9.038 13.773 4.668 20.963l-54.033 87.9 70.72 76.66 139.553-174.079c5.165-6.481 14.601-7.493 20.957-2.126 6.358 5.266 7.251 14.887 2.086 21.368zM695.913 575.756c0.993 0 1.887 0 2.88 0.101 38.937 1.621 69.429 34.228 69.429 73.622 0 1.012 0 1.924-0.099 2.936-1.59 39.697-33.572 70.786-72.21 70.786-0.993 0-1.887 0-2.88-0.101-38.936-1.621-69.429-34.229-69.429-73.622 0-1.012 0-2.026 0.099-2.937 1.49-39.697 33.573-70.786 72.21-70.786v0zM694.224 692.72h1.688c22.647 0 41.518-18.33 42.412-41.622v-1.722c0-23.089-17.879-42.33-40.823-43.241l-1.689-0.102c-22.646 0-41.518 18.33-42.412 41.621v1.722c0 23.19 17.978 42.432 40.823 43.343v0zM275.692 310.154h492.308v-19.692h-492.308v19.692zM334.769 251.077h354.462v-19.692h-354.462v19.692z" />
<glyph unicode="&#xe937;" d="M1024 448c0-282.77-229.23-512-512-512s-512 229.23-512 512c0 282.77 229.23 512 512 512s512-229.23 512-512z" />
<glyph unicode="&#xe938;" d="M757.292 754.728l6.137 0.131c8.857 0.264 17.235-3.147 23.279-9.175 6.429-6.341 9.028-14.506 8.747-24.938l-0.421-3.948c0.073-0.141 0.058-53.34-0.044-159.595-0.396-18.098-14.996-30.107-32.58-30.502l-8.395-0.001c-18.36-0.437-32.899 14.92-32.508 32.594l0.3 70.277-92.114-91.257c29.526-39.886 45.853-88.304 45.853-139.201 0-129.623-105.396-234.681-235.376-234.681-129.969 0-235.369 105.064-235.369 234.681 0 129.627 105.397 234.687 235.369 234.687 49.853 0 97.348-15.53 136.849-43.734l91.955 91.097-67.868 0.14c-17.297-0.366-32.125 12.099-34.6 32.552l0.019 9.264c0.417 17.498 14.676 31.704 32.659 32.081l155.409-0.702c0.569 0.080 1.251 0.128 2.699 0.23zM601.933 399.112c0 89.012-72.412 161.189-161.765 161.189-89.349 0-161.757-72.177-161.757-161.189 0-89.001 72.417-161.187 161.757-161.187 89.349 0 161.765 72.184 161.765 161.187z" />
<glyph unicode="&#xe939;" glyph-name="car" horiz-adv-x="1205" d="M294.799 410.904c-21.017 0-40.443-11.212-50.954-29.416s-10.512-40.633 0-58.836c10.511-18.204 29.937-29.416 50.954-29.41 32.491 0.006 58.824 26.344 58.824 58.83s-26.332 58.825-58.824 58.831zM1091.38 593.857l-102.976 269.109c-19.419 51.246-61.435 95.064-140.857 95.064h-99.319c0 0-47.274 1.969-71.552 1.969h-105.019c-24.282 0-71.592-1.969-71.592-1.969h-145.874c-79.216 0-121.272-43.818-140.657-95.064l-100.243-269.109c-40.931-5.258-113.286-53.859-113.286-145.715v-235.119c0-23.037-2.285-88.968 85.96-88.968h52.688v-76.046c0-83.87 92.7-86.683 92.7 0v76.046h741.965v-76.046c1.481-85.277 94.14-83.87 92.66 0v76.046h52.726c84.875 0 86.001 72.757 86.001 88.968v235.119c0 91.856-72.435 140.416-113.325 145.715zM288.943 836.881c9.748 29.736 24.278 51.207 58.308 51.527h504.51c33.87-0.32 48.44-21.791 58.073-51.527l94.983-249.809h-809.336l93.462 249.809zM1136.283 272.777c-0.022-43.324-35.132-78.434-78.45-78.456h-909.547c-43.324 0.022-78.45 35.126-78.497 78.456v167.902c0 43.302 35.156 78.412 78.497 78.412h909.547c43.336 0 78.45-35.11 78.45-78.412v-167.902zM942.135 410.904c-32.515 0-58.871-26.356-58.871-58.871s26.356-58.871 58.871-58.871c32.515 0 58.871 26.356 58.871 58.871s-26.356 58.871-58.871 58.871z" />
<glyph unicode="&#xe93a;" glyph-name="hotel_1" horiz-adv-x="1078" d="M916.214 530.379h-547.037c10.783 13.42 8.086 32.207 8.086 53.675v59.044c0 45.623-29.642 75.144-75.451 75.144h-158.99c-10.779 0-24.254 8.053-35.031 2.685v158.342c0 16.101-10.779 26.836-26.95 26.836-16.167 0-26.946-10.735-26.946-26.836v-858.804c0-16.101 10.779-26.836 26.946-26.836 16.172 0 26.95 10.735 26.95 26.836v187.863h862.315v-187.863c0-16.101 10.782-26.836 26.949-26.836 16.168 0 26.946 10.735 26.946 26.836v402.562c0 59.044-48.507 107.352-107.786 107.352zM323.368 562.586c0-18.786-13.47-32.207-32.335-32.207h-150.909c-18.859 0-32.334 13.42-32.334 32.207v69.777c0 18.783 13.475 32.203 32.334 32.203h150.909c18.864 0 32.335-13.42 32.335-32.203v-69.777zM970.105 262.005h-862.315v214.699h808.424c29.637 0 53.891-24.154 53.891-53.676v-161.022z" />
<glyph unicode="&#xe93b;" glyph-name="plane_1" horiz-adv-x="1755" d="M669.381 819.26c19.080-31.621 35.984-61.057 63.241-99.218l2.179-2.184 304.199-397.417c12.54-14.719 29.438-25.621 50.701-25.621h372.338c83.413 0 154.281-48.522 154.281-105.764 0-65.419-97.039-103.58-141.741-103.58h-1095.22c-29.437 14.718-112.304 105.764-200.614 243.142-10.361 25.621-27.259 112.299-40.345 188.080l50.701 21.258 4.362-4.362 171.179-213.7c12.54-14.719 29.437-23.443 48.517-23.443h253.499c21.263 0 40.344 10.361 52.879 27.259 12.54 16.902 14.719 38.161 8.724 57.241l-145.558 402.326c2.179 0 4.363 2.177 8.724 2.177 2.179 0 4.363 2.184 4.363 2.184l73.591 31.621zM669.381 886.857l-97.034-40.34c-42.522-12.539-59.424-27.258-59.424-59.424l152.097-431.217h-253.494l-168.999 213.7c-21.265 27.259-38.161 31.621-48.518 31.621-6.544 0-10.361-2.184-10.361-2.184l-76.321-31.619c-29.438-19.080-35.978-25.621-33.799-40.34 0 0 27.259-183.717 50.701-230.603 16.896-25.621 181.533-274.757 253.499-274.757h1099.576c69.782 0 204.982 57.241 204.982 166.816 0 103.58-121.028 168.999-211.522 168.999h-382.154l-304.2 395.24c-25.621 38.161-44.156 67.598-63.235 103.58-11.995 17.989-30.529 30.529-51.794 30.529z" />
<glyph unicode="&#xe93c;" glyph-name="city" horiz-adv-x="1092" d="M620.93 775.949h-66.45c-11.138 0-20.177-8.699-20.177-19.435v-66.041c0-10.736 9.039-19.44 20.177-19.44h66.455c11.138 0 20.182 8.704 20.182 19.44v66.041c-0.016 10.736-9.045 19.435-20.182 19.435h-0.005zM620.93 565.852h-66.45c-11.138 0-20.177-8.791-20.177-19.648v-65.492c0-10.853 9.039-19.644 20.177-19.644h66.455c11.138 0 20.182 8.791 20.182 19.644v65.492c-0.016 10.857-9.045 19.648-20.182 19.648h-0.005zM1053.815-11.213h-65.436v297.052c0 53.507-49.033 96.882-104.261 96.882h-56.077v487.837c0 49.399-41.336 89.443-92.307 89.443h-536.209c-50.971 0-92.307-40.055-92.307-89.443v-881.771h-68.749c-21.252 0-38.468-6.836-38.468-27.429v0.432c0-20.578 17.216-25.789 38.468-25.789h1015.347c21.236 0 38.452 8.481 38.452 29.069v-2.057c0 20.578-17.216 25.774-38.452 25.774zM747.182 2.803c0-8.243-6.895-14.911-15.376-14.911h-102.070c-8.486 0-15.365 6.668-15.365 14.911v128.822c0 8.243 6.895 14.906 15.365 14.906h102.060c8.492 0 15.37-6.663 15.37-14.906v-128.822h0.016zM747.182 213.48c0-8.227-6.895-14.911-15.376-14.911h-102.070c-8.486 0-15.365 6.684-15.365 14.911v100.63c0 8.237 6.895 15.723 15.365 15.723h102.060c8.492 0 15.37-6.668 15.37-14.911v-101.443h0.016zM774.574 382.72h-116.402c-55.234 0-96.663-43.375-96.663-96.882v-297.052h-401.028v859.125c0 32.929 27.557 59.626 61.524 59.626h491.023c33.993 0 61.535-26.698 61.535-59.626v-465.192h0.011zM934.927 2.803c0-8.243-6.895-14.911-15.392-14.911h-102.885c-8.508 0-15.386 6.668-15.386 14.911v128.822c0 8.243 6.889 14.906 15.386 14.906h102.885c8.513 0 15.392-6.663 15.392-14.906v-128.822zM934.927 213.48c0-8.227-6.895-14.911-15.392-14.911h-102.885c-8.508 0-15.386 6.684-15.386 14.911v101.443c0 8.243 6.889 14.911 15.386 14.911h102.885c8.513 0 15.392-6.668 15.392-14.911v-101.443zM380.685 565.852h-66.935c-11.070 0-20.058-8.791-20.058-19.648v-65.492c0-10.853 8.988-19.644 20.058-19.644h66.935c11.070 0 20.058 8.791 20.058 19.644v65.492c0 10.857-8.988 19.648-20.058 19.648zM380.685 775.949h-66.935c-11.070 0-20.058-8.699-20.058-19.435v-66.041c0-10.736 8.988-19.44 20.058-19.44h66.935c11.070 0 20.058 8.704 20.058 19.44v66.041c0 10.736-8.988 19.435-20.058 19.435zM380.685 355.647h-66.935c-11.070 0-20.058-8.699-20.058-19.435v-66.046c0-10.736 8.988-19.435 20.058-19.435h66.935c11.070 0 20.058 8.699 20.058 19.435v66.046c0 10.736-8.988 19.435-20.058 19.435z" />
<glyph unicode="&#xe93d;" glyph-name="train" horiz-adv-x="970" d="M970.105 211.153v510.596c0 131.378-108.753 238.251-242.404 238.251h-484.764c-133.64 0-242.394-106.873-242.394-238.251v-510.596c0-56.317 46.615-102.111 103.87-102.111h19.759l-114.044-112.11c-13.505-13.276-13.505-34.829 0-48.139 13.54-13.276 35.456-13.276 48.97 0l163.006 160.249h525.886l162.979-160.249c13.54-13.276 35.466-13.276 48.971 0 13.54 13.31 13.54 34.863 0 48.139l-114.024 112.11h20.309c57.254 0 103.88 45.794 103.88 102.111zM69.804 211.153v510.596c0 94.003 77.514 170.196 173.134 170.196h484.764c95.62 0 173.139-76.194 173.139-170.196v-510.596c0-18.808-15.518-34.056-34.615-34.056h-761.812c-19.097 0-34.61 15.249-34.61 34.056zM291.744 704.709h437.675c20.146 0 36.453 11.436 36.453 25.537 0 14.104-16.308 25.521-36.453 25.521h-437.675c-20.114 0-36.453-11.417-36.453-25.521 0-14.1 16.339-25.537 36.453-25.537zM729.419 40.953h-437.675c-20.114 0-36.453-11.442-36.453-25.545 0-14.077 16.339-25.513 36.453-25.513h437.675c20.146 0 36.453 11.436 36.453 25.513 0 14.103-16.308 25.545-36.453 25.545zM663.756 423.867c0-42.279 34.29-76.565 76.591-76.565 42.305 0 76.584 34.286 76.584 76.565 0 42.322-34.279 76.61-76.584 76.61-42.301 0-76.591-34.288-76.591-76.61zM280.816 347.302c42.272 0 76.591 34.286 76.591 76.565 0 42.322-34.319 76.61-76.591 76.61-42.305 0-76.584-34.288-76.584-76.61 0-42.279 34.279-76.565 76.584-76.565z" />
<glyph unicode="&#xe93e;" glyph-name="ship" d="M1005.732 69.213c-10.8 5.3-20.8 11.002-29.501 17.31l-5.099 2.999c-32.401 15.408-68.799 24.614-107.501 24.614h-1.098l113.101 286.759c25.395 37.618 22.1 88.848-10.103 122.767-4.6 4.803-9.8 8.901-15.6 12.107l-86.002 47.223v181.901c0 35.918-28.599 65.036-63.999 65.036h-31.998v65.036c0 35.918-28.604 65.036-64.004 65.036h-384.002c-35.402 0-64-29.117-64-65.036v-65.036h-32.001c-35.402 0-63.999-29.117-63.999-65.036v-181.901l-85.802-47.223c-5.796-3.206-11.099-7.304-15.601-12.107-32.196-34.017-35.498-85.247-10.098-122.767l135.201-343.088c1.099-2.903 2.799-5.507 4.6-7.808-40.298 0.802-77.301 14.11-107.998 36.525l-5.103 2.999c-11.299 5.403-22.7 9.508-33.702 12.907-16.9 5.302-34.8-4.304-40-21.413-5.2-17.207 4.301-35.317 21.201-40.622 8.701-2.701 16.699-5.702 23.999-9.102 41.202-29.020 91.402-46.529 145.504-46.529 37.799 0 73.399 8.809 105.201 23.514l5.601 3.303c31.899 23.612 70.596 37.521 112.798 37.521 27.999 0 54.303-6.504 78.599-17.71 41.304-29.118 91.504-46.628 145.705-46.628 37.798 0 73.398 8.809 105.298 23.514l5.6 3.303c31.803 23.612 70.499 37.521 112.8 37.521 28.003 0 54.302-6.504 78.501-17.607 11.7-8.208 23.901-15.111 36.002-21.013 15.899-7.704 35.103-0.904 42.7 15.306 7.5 16.21 0.801 35.621-15.2 43.428zM223.924 764.893h32.001c35.402 0 64 29.117 64 65.036v65.036h384.002v-65.036c0-35.918 28.604-65.036 64.004-65.036h31.998v-146.682l-230.403 126.671c-16.396 13.005-36.797 20.411-57.598 20.411-20.904 0-41.202-7.407-57.603-20.411l-230.402-126.671v146.682zM268.725 66.712c-8.399-3.806-17.1-7.006-25.996-9.508 3.198 7.704 3.599 16.61 0.298 24.911l-138.502 351.297c-11.796 12.507-11.796 32.718 0 45.225l375.404 206.31v-579.517c-20.499 5.603-41.998 8.706-64.4 8.706-54.698 0.103-105.298-17.71-146.802-47.424zM716.731 66.712c-23.799-10.607-49.503-16.812-76.802-16.812-35.099 0-67.702 9.703-96.002 26.416v608.631l375.403-206.31c11.801-12.507 11.801-32.718 0-45.225l-130.401-330.684c-26.099-8.203-50.402-20.412-72.198-36.016z" />
</font>
</defs>
</svg>
